<?xml version="1.0" encoding="UTF-8" standalone="no"?>
<!-- Created with Inkscape (http://www.inkscape.org/) -->

<svg
   version="1.1"
   id="svg2"
   width="718.10669"
   height="793.70667"
   viewBox="0 0 718.10669 793.70667"
   sodipodi:docname="charmander-seeklogo.com.ai"
   xmlns:inkscape="http://www.inkscape.org/namespaces/inkscape"
   xmlns:sodipodi="http://sodipodi.sourceforge.net/DTD/sodipodi-0.dtd"
   xmlns="http://www.w3.org/2000/svg"
   xmlns:svg="http://www.w3.org/2000/svg">
  <defs
     id="defs6">
    <clipPath
       clipPathUnits="userSpaceOnUse"
       id="clipPath16">
      <path
         d="M 0,595.28 H 538.58 V 0 H 0 Z"
         id="path14" />
    </clipPath>
  </defs>
  <sodipodi:namedview
     id="namedview4"
     pagecolor="#ffffff"
     bordercolor="#000000"
     borderopacity="0.25"
     inkscape:showpageshadow="2"
     inkscape:pageopacity="0.0"
     inkscape:pagecheckerboard="0"
     inkscape:deskcolor="#d1d1d1" />
  <g
     id="g8"
     inkscape:groupmode="layer"
     inkscape:label="charmander-seeklogo.com"
     transform="matrix(1.3333333,0,0,-1.3333333,0,793.70667)">
    <g
       id="g10">
      <g
         id="g12"
         clip-path="url(#clipPath16)">
        <g
           id="g18"
           transform="translate(423.1641,287.4121)">
          <path
             d="m 0,0 c 0.509,-9.677 0.396,-19.335 -0.846,-28.962 -2.251,-17.451 -7.217,-34.02 -17.133,-48.695 -11.469,-16.971 -27.409,-27.234 -47.883,-29.887 -9.56,-1.239 -19.117,-0.571 -28.599,1.058 -0.969,0.167 -1.418,-0.021 -1.859,-0.908 -2.102,-4.222 -4.997,-7.877 -8.39,-11.123 -0.844,-0.806 -0.813,-1.285 -0.198,-2.193 2.08,-3.072 4.149,-6.164 4.955,-9.888 1.099,-5.083 -1.273,-9.753 -6.06,-11.743 -0.667,-0.277 -1.034,-0.694 -1.446,-1.242 -2.442,-3.255 -5.777,-5.32 -9.462,-6.878 -0.865,-0.366 -1.118,0.212 -1.146,0.923 -0.042,1.047 -0.066,2.097 -0.04,3.143 0.016,0.67 -0.045,0.957 -0.905,0.926 -1.289,-0.046 -2.077,-0.438 -2.537,-1.712 -0.55,-1.522 -1.408,-2.902 -2.433,-4.177 -0.571,-0.71 -1.056,-0.792 -1.775,-0.207 -1.52,1.236 -2.955,2.553 -4.238,4.035 -0.576,0.666 -2.706,1.162 -3.487,0.843 -0.356,-0.143 -0.312,-0.427 -0.35,-0.694 -0.074,-0.518 -0.202,-1.038 -0.198,-1.556 0.014,-1.86 -0.166,-2.191 -2.358,-1.718 -2.707,0.584 -5.347,1.357 -7.799,2.675 -1.315,0.706 -2.5,1.567 -3.324,2.853 -0.124,0.194 -0.277,0.404 -0.469,0.515 -3.88,2.23 -4.769,5.992 -4.955,9.997 -0.214,4.586 1.158,8.936 2.342,13.3 0.51,1.88 1.512,3.776 1.431,5.627 -0.078,1.809 -1.696,3.329 -2.577,5.009 -1.458,2.783 -2.883,5.579 -4.015,8.512 -0.251,0.648 -0.536,0.99 -1.288,1.052 -7.038,0.564 -13.973,1.743 -20.782,3.618 -0.568,0.156 -0.865,-0.024 -1.194,-0.451 -4.486,-5.83 -8.311,-12.071 -11.605,-18.644 -0.473,-0.945 -0.205,-1.878 -0.036,-2.795 0.751,-4.074 1.444,-8.153 1.865,-12.278 0.252,-2.474 -0.064,-3.079 -2.426,-3.969 -4.577,-1.724 -9.355,-2.52 -14.195,-3.042 -10.809,-1.166 -21.645,-1.678 -32.518,-1.879 -3.959,-0.073 -7.941,-0.706 -11.939,-0.717 -2.439,-0.009 -4.842,0.361 -7.257,0.613 -0.556,0.057 -1.246,-0.024 -1.53,0.563 -0.324,0.672 0.263,1.135 0.625,1.619 0.111,0.147 0.24,0.281 0.498,0.58 -1.676,0.1 -3.208,0.188 -4.738,0.281 -1.95,0.119 -3.9,0.234 -5.849,0.366 -1.557,0.104 -1.856,0.665 -1.072,2.002 0.304,0.518 0.646,1.014 1.075,1.681 -2.344,-0.008 -4.518,-0.077 -6.672,0.246 -1.322,0.197 -1.544,0.528 -0.829,1.614 2.48,3.767 5.726,6.622 10.062,8.047 1.103,0.362 2.056,0.862 2.988,1.536 6.635,4.797 14.124,7.805 21.844,10.316 0.362,0.118 0.735,0.206 1.086,0.349 1.289,0.521 1.512,1.829 0.501,2.791 -3.394,3.229 -6.636,6.543 -8.343,11.075 -2.63,6.982 -1.902,13.741 1.153,20.364 3.795,8.221 9.764,14.709 16.549,20.532 1.116,0.958 2.798,1.767 3.144,2.958 0.319,1.099 -0.818,2.613 -1.293,3.952 -5.301,14.953 -8.165,30.302 -7.53,46.222 0.138,3.475 0.278,6.951 0.447,10.424 0.03,0.621 -0.005,1.032 -0.703,1.325 -10.948,4.594 -19.735,12.062 -27.722,20.668 -5.272,5.681 -9.769,11.933 -14.218,18.238 -1.632,2.311 -3.395,4.42 -6.098,5.591 -1.217,0.527 -2.265,1.413 -3.124,2.457 -0.964,1.172 -0.866,2.118 0.331,3.028 1.819,1.382 3.638,2.768 5.502,4.089 0.938,0.665 1.12,1.413 0.982,2.547 -0.433,3.546 -0.76,7.112 -0.13,10.677 0.415,2.353 1.021,2.662 2.978,1.293 6.622,-4.628 13.681,-8.422 21.171,-11.451 7.347,-2.97 14.946,-4.752 22.857,-5.208 0.522,-0.03 1.047,-0.047 1.571,-0.061 0.081,-0.002 0.164,0.05 0.447,0.141 -3.265,1.839 -6.082,4.05 -8.661,6.571 -8.843,8.644 -15.307,18.683 -17.904,30.919 -0.529,2.49 -1.319,4.755 -2.539,7.008 -2.906,5.369 -3.819,10.955 -0.563,16.592 2.017,3.493 4.934,6.021 8.586,7.68 0.751,0.341 1.079,0.731 1.174,1.549 1.576,13.484 5.861,26.024 13.119,37.524 0.252,0.398 0.455,0.835 0.623,1.276 1.16,3.042 3.212,5.255 6.169,6.603 0.808,0.368 1.392,0.889 1.915,1.614 6.828,9.467 16.19,14.492 27.723,15.489 8.221,0.71 16.355,0.293 24.265,-2.432 20.269,-6.983 32.491,-21.245 38.004,-41.688 3.305,-12.256 2.734,-24.46 0.211,-36.77 -1.721,-8.4 -2.728,-16.937 -2.492,-25.546 0.237,-8.666 2.174,-16.959 5.853,-24.835 0.362,-0.771 0.79,-0.903 1.536,-0.857 6.359,0.397 12.49,1.946 18.598,3.619 10.714,2.934 21.073,6.824 31.135,11.519 0.73,0.341 1.488,0.643 2.262,0.867 1.908,0.549 2.451,0.133 2.467,-1.824 0.025,-3.18 -0.62,-6.247 -1.695,-9.218 -0.479,-1.324 -0.191,-2.637 -0.21,-3.956 -0.006,-0.506 0.502,-0.66 0.84,-0.896 1.638,-1.148 3.307,-2.252 4.929,-3.423 1.386,-1.001 1.594,-1.796 0.833,-3.312 -1.404,-2.799 -3.559,-4.939 -6.168,-6.604 -0.968,-0.618 -1.592,-1.411 -2.125,-2.4 -3.977,-7.383 -8.983,-13.914 -15.861,-18.86 -4.612,-3.317 -9.746,-5.548 -15.19,-7.063 -1.089,-0.302 -1.295,-0.607 -0.978,-1.714 2.422,-8.516 5.722,-16.733 8.496,-25.129 3.745,-11.337 7.483,-22.672 9.739,-34.429 0.556,-2.9 1.009,-5.817 1.28,-8.756 0.084,-0.915 0.404,-1.585 1.068,-2.226 5.413,-5.225 11.946,-8.028 19.33,-8.99 7.866,-1.025 15.681,-1.046 23.318,1.487 15.729,5.216 27.426,15.306 35.663,29.567 4.343,7.519 6.442,15.708 7.291,24.276 0.234,2.369 0.565,4.73 0.56,7.118 -0.149,0.599 -0.241,1.174 0.562,1.388 0.985,-0.06 0.965,-0.806 0.919,-1.462 -0.675,-9.581 -1.829,-19.064 -5.98,-27.897 -2.403,-5.113 -5.475,-9.799 -9.056,-14.165 -5.766,-7.029 -12.742,-12.545 -20.845,-16.62 -5.873,-2.954 -12.055,-5.147 -18.645,-5.538 -8.508,-0.507 -16.972,-0.084 -24.919,3.547 -2.648,1.211 -5.132,2.72 -7.323,4.67 -0.306,0.271 -0.565,0.622 -1.097,0.738 0.351,-5.459 0.084,-10.809 -0.918,-16.113 -0.161,-0.85 0.155,-1.595 0.457,-2.347 1.368,-3.419 2.372,-6.935 2.889,-10.587 0.478,-3.155 0.804,-6.323 0.45,-9.51 -0.119,-1.08 0.395,-1.455 1.288,-1.665 2.091,-0.492 4.22,-0.744 6.35,-0.899 9.552,-0.695 18.976,0.216 28.311,2.302 4.42,0.989 8.773,2.154 12.913,4.028 1.995,0.903 3.907,1.953 5.764,3.108 4.772,3.166 9.194,6.739 13.21,10.847 4.696,4.807 8.526,10.217 11.871,16.01 2.387,4.133 4.228,8.521 6.121,12.887 2.031,4.685 2.672,9.707 3.549,14.672 1.801,10.188 1.462,20.475 1.448,30.749 0,0.526 -0.124,1.039 -0.174,1.559 C -1.478,0.819 -1.529,1.419 -0.78,1.634 0.389,1.524 0.224,0.776 0,0"
             style="fill:#221714;fill-opacity:1;fill-rule:evenodd;stroke:none"
             id="path20" />
        </g>
        <g
           id="g22"
           transform="translate(423.1641,287.4121)">
          <path
             d="m 0,0 c -0.462,0.394 0.257,1.226 -0.552,1.491 -0.084,0.161 -0.051,0.294 0.096,0.399 3.773,1.298 5.65,4.104 6.394,7.886 0.889,4.525 0.907,9.091 0.778,13.665 -0.039,1.364 -0.507,2.561 -1.51,3.594 -3.182,3.273 -4.75,7.184 -4.467,11.794 0.042,0.695 0.144,1.422 -0.13,2.109 -0.515,0.083 -0.674,-0.331 -0.878,-0.611 -1.411,-1.946 -2.562,-3.993 -2.851,-6.457 -0.172,-1.473 -0.587,-2.9 -1.755,-3.972 -0.552,-0.505 -1.151,-0.831 -1.922,-0.787 -0.805,0.045 -1.272,0.423 -1.18,1.263 0.291,2.641 -0.419,5.046 -1.411,7.477 -1.201,2.945 -1.343,6.079 -1.166,9.265 0.226,4.046 1.434,7.951 1.363,12.051 -0.052,2.957 -0.818,5.625 -1.939,8.269 -0.185,0.437 -0.457,0.836 -0.554,1.311 0.108,-1.14 0.182,-2.271 -0.456,-3.313 -0.227,-0.371 -0.294,-0.801 -0.317,-1.235 -0.115,-2.248 -0.707,-4.418 -1.093,-6.621 -0.207,-1.177 -0.856,-1.908 -2.009,-2.128 -1.04,-0.199 -1.559,-0.825 -1.752,-1.811 -0.119,-0.612 -0.31,-1.204 -0.664,-1.724 -0.384,-0.565 -0.832,-1.153 -1.617,-0.819 -0.673,0.286 -0.721,0.946 -0.635,1.595 0.076,0.567 0.279,1.112 0.316,1.685 0.064,1.016 -0.264,1.819 -1.34,2.057 -2.398,0.529 -3.481,2.344 -4.322,4.377 -0.585,1.415 -0.839,2.927 -1.138,4.654 -1.224,-1.968 -1.652,-3.951 -1.644,-6.051 0.002,-0.558 0.254,-1.142 -0.27,-1.605 -0.083,0.045 -0.22,0.072 -0.24,0.136 -0.843,2.669 -2.741,4.598 -4.492,6.67 -1.669,1.976 -1.001,4.449 -0.835,6.744 0.111,1.53 0.728,2.943 1.385,4.326 0.714,1.504 1.409,3.018 2.082,4.54 0.292,0.66 0.636,1.276 1.118,1.813 2.72,3.027 2.732,3.055 2.84,7.177 1.48,-1.545 2.142,-3.134 2.315,-5.134 0.897,0.942 0.692,1.977 0.807,3.122 1.283,-1.114 1.732,-2.374 1.638,-3.998 3.03,0.838 5.248,2.442 6.442,5.265 0.631,1.494 1.14,3.089 1.173,4.688 0.057,2.568 0.931,4.837 1.999,7.08 1.084,2.278 2.165,4.546 2.558,7.082 0.12,0.773 0.388,1.557 0.965,2.254 0.499,-0.451 0.283,-0.996 0.248,-1.45 -0.39,-5.082 0.582,-9.831 3.207,-14.252 1.16,-1.955 0.877,-4.265 1.041,-6.426 0.182,-2.415 -0.012,-4.851 1.348,-7.055 0.414,-0.67 0.453,-1.538 0.239,-2.366 -0.081,-0.316 -0.059,-0.662 -0.063,-0.995 -0.012,-0.949 0.611,-1.487 1.351,-1.848 0.807,-0.393 1.169,0.35 1.635,0.797 0.982,0.947 0.982,2.306 1.44,3.6 0.819,-0.707 0.864,-1.646 1.259,-2.669 2.805,2.616 4.651,5.734 6.168,9.365 0.714,-1.499 0.808,-2.879 0.956,-4.204 0.351,-3.124 0.627,-6.268 0.326,-9.411 -0.247,-2.582 0.383,-5.02 1.024,-7.453 1.362,-5.165 1.847,-10.393 1.388,-15.714 -0.052,-0.611 -0.007,-1.231 -0.007,-1.849 2.113,0.44 2.518,0.887 4.448,4.939 0.486,-0.63 0.332,-1.394 0.591,-2.015 1.738,-4.154 0.134,-8.347 0.125,-12.517 -0.003,-2.046 0.321,-4.239 -1.111,-6.062 -0.051,-0.063 -0.072,-0.197 -0.041,-0.271 0.916,-2.161 -0.593,-3.336 -1.838,-4.661 C 12.547,24.591 11.607,21.508 11.17,18.254 10.796,15.473 10.734,12.635 10.177,9.896 9.105,4.628 6.145,1.05 0.535,0.194 0.352,0.167 0.178,0.067 0,0"
             style="fill:#e15423;fill-opacity:1;fill-rule:evenodd;stroke:none"
             id="path24" />
        </g>
        <g
           id="g26"
           transform="translate(394.5391,345.2202)">
          <path
             d="M 0,0 C -0.026,4.944 0.254,6.109 2.145,8.682 2.403,7.344 2.634,6.08 2.896,4.822 3.209,3.312 3.847,1.95 4.766,0.703 5.391,-0.144 6.146,-0.753 7.192,-0.898 9.077,-1.16 9.205,-2.191 9.099,-3.766 9.07,-4.188 8.961,-4.618 8.81,-5.014 8.576,-5.62 8.576,-6.239 9.171,-6.502 c 0.6,-0.267 0.888,0.38 1.18,0.792 0.163,0.229 0.33,0.502 0.36,0.77 0.19,1.721 0.827,2.962 2.803,3.133 0.63,0.056 1.008,0.609 1.117,1.316 0.381,2.481 0.85,4.949 1.239,7.428 0.244,1.559 1.027,3.054 0.847,4.765 1.58,-2.567 2.759,-5.263 3.038,-8.271 0.347,-3.73 -0.347,-7.375 -0.915,-11.041 -0.735,-4.748 -0.754,-9.431 1.456,-13.93 0.877,-1.785 1.114,-3.822 0.689,-5.838 -0.172,-0.811 0.173,-1.005 0.896,-1.008 1.251,-0.008 1.875,0.843 2.405,1.751 0.554,0.953 0.758,2.041 0.905,3.128 0.405,3.004 1.898,5.426 4.023,7.506 0.085,0.082 0.247,0.085 0.53,0.175 0,-1.103 0.05,-2.129 -0.008,-3.148 -0.259,-4.604 1.311,-8.5 4.579,-11.696 0.969,-0.949 1.365,-2.08 1.397,-3.321 0.14,-5.183 0.252,-10.372 -1.075,-15.451 -0.732,-2.802 -2.348,-4.955 -4.916,-6.334 -0.498,-0.266 -1.069,-0.411 -1.659,-0.318 -0.719,0.469 -1.189,1.198 -1.831,1.75 -1.929,1.663 -3.906,1.345 -5.156,-0.85 -0.186,-0.328 -0.306,-0.696 -0.716,-0.823 -0.376,-0.35 0.137,-0.913 -0.302,-1.248 -2.068,-0.591 -4.13,-1.032 -6.316,-0.589 -2.599,0.527 -4.598,1.75 -5.588,4.314 -0.327,0.849 -0.97,1.391 -1.696,1.867 -1.233,0.806 -2.046,1.829 -1.86,3.422 0.102,0.889 -0.334,1.564 -1.033,2.07 -0.615,0.448 -1.28,0.832 -1.875,1.305 -2.04,1.622 -3.376,3.622 -3.16,6.358 0.124,1.563 0.131,3.173 0.535,4.667 1.192,4.406 0.778,8.798 0.003,13.159 -0.333,1.872 0.138,3.249 1.543,4.257 3.535,2.535 3.499,5.26 2.534,9.711 C 3.085,-6.458 2.941,-6.157 2.741,-5.982 0.92,-4.398 0.525,-2.171 0,0"
             style="fill:#fcd13c;fill-opacity:1;fill-rule:evenodd;stroke:none"
             id="path28" />
        </g>
        <g
           id="g30"
           transform="translate(207.4795,217.6035)">
          <path
             d="m 0,0 c -5.389,7.323 -9.722,15.177 -12.54,23.875 -4.819,14.874 -7.021,30.079 -6.177,45.701 0.325,6.03 0.25,12.148 1.69,18.024 3.234,13.203 9.69,24.607 19.949,33.707 0.558,0.344 1.098,0.146 1.643,-0.049 5.404,-1.929 11.012,-2.585 16.71,-2.685 6.679,-0.117 13.335,0.079 19.905,1.451 0.524,0.11 1.041,0.121 1.535,-0.131 7.332,-5.75 12.557,-13.216 17.115,-21.191 C 68.471,83.586 74.582,67.509 77.716,50.362 79.82,38.842 80.531,27.229 79.648,15.521 79.116,8.473 78.103,1.526 76.12,-5.261 c -1.085,-3.712 -2.646,-7.221 -4.809,-10.445 -0.584,-0.244 -1.004,0.141 -1.443,0.398 C 59.29,-9.065 48.128,-4.087 36.555,-0.024 31.067,1.901 25.481,3.547 19.665,4.126 14.727,4.617 9.785,4.834 5.046,2.825 3.801,2.298 2.661,1.664 1.691,0.706 1.243,0.265 0.818,-0.381 0,0"
             style="fill:#f4e07b;fill-opacity:1;fill-rule:evenodd;stroke:none"
             id="path32" />
        </g>
        <g
           id="g34"
           transform="translate(308.1582,300.5435)">
          <path
             d="m 0,0 c 4.507,-13.388 9.44,-26.634 13.315,-40.233 2.877,-10.096 5.03,-20.316 5.494,-30.833 0.179,-4.094 -0.205,-8.163 -1.003,-12.358 -1.137,1.374 -2.121,2.629 -3.175,3.822 -1.918,2.17 -4.184,3.882 -6.877,4.991 -0.325,0.134 -0.755,0.483 -0.965,-0.06 -0.161,-0.414 0.333,-0.516 0.598,-0.655 8.326,-4.33 12.01,-11.712 13.506,-20.529 0.718,-4.243 1.015,-8.503 0.314,-12.784 -1.059,-1.86 -2.836,-2.975 -4.561,-4.009 -8.728,-5.235 -18.213,-8.401 -28.244,-9.978 -1.436,-0.226 -2.72,0.352 -3.893,1.13 -4.777,3.167 -8.464,7.349 -11.298,12.294 -1.111,1.94 -2.268,3.865 -3.047,5.975 -0.174,0.473 -0.528,0.942 -0.16,1.48 6.062,8.76 8.352,18.749 9.495,29.115 0.61,5.54 0.921,11.093 0.826,16.67 -0.332,19.71 -4.542,38.562 -12.485,56.587 -4.233,9.603 -9.04,18.878 -15.494,27.225 -2.572,3.326 -5.431,6.354 -8.638,9.06 0.096,0.813 0.815,0.662 1.297,0.775 5.95,1.394 11.679,3.394 17.143,6.137 4.36,2.188 8.25,5.069 12,8.157 0.636,0.524 1.164,1.288 2.145,1.228 0.667,-1.577 1.308,-3.165 2.014,-4.724 0.316,-0.699 0.172,-0.944 -0.582,-0.924 -0.619,0.016 -1.239,-0.02 -1.858,-0.05 -0.226,-0.011 -0.53,10e-4 -0.558,-0.308 -0.036,-0.374 0.278,-0.451 0.566,-0.471 0.379,-0.025 0.762,-0.015 1.143,-0.018 6.761,-0.031 13.336,1.183 19.846,2.903 11.761,3.106 23.148,7.227 34.169,12.369 0.975,0.454 2.195,1.386 3.019,0.763 0.803,-0.608 0.229,-2.037 0.136,-3.109 -0.174,-2.002 -0.63,-3.941 -1.278,-5.839 -0.506,-0.325 -0.705,0.05 -0.797,0.416 -0.228,0.915 -0.674,0.675 -1.227,0.312 -1.421,-0.932 -2.689,-2.077 -4.14,-2.969 -0.588,-0.114 -1.135,0.088 -1.687,0.218 -2.281,0.538 -4.573,0.963 -6.997,0.723 2.311,0.06 4.494,-0.421 6.676,-0.877 2.23,-0.466 2.492,-0.949 1.688,-3.02 -0.777,-1.999 -1.688,-3.937 -2.62,-5.865 C 22.245,39.259 20.622,35.826 18.315,32.744 13.252,25.98 7.123,20.463 -0.261,16.315 -6.084,13.046 -12.214,10.659 -18.767,9.352 -20.018,9.103 -20.206,8.749 -19.711,7.548 -17.736,2.754 -14.149,-0.437 -9.3,-1.945 -6.568,-2.794 -3.718,-2.263 -1.246,-0.55 -0.87,-0.29 -0.562,0.149 0,0"
             style="fill:#ed771e;fill-opacity:1;fill-rule:evenodd;stroke:none"
             id="path36" />
        </g>
        <g
           id="g38"
           transform="translate(163.2832,393.5181)">
          <path
             d="m 0,0 c -4.898,9.915 -0.013,17.541 7.103,21.535 1.202,0.674 2.297,0.996 3.501,-0.069 0.588,-0.521 1.39,-0.816 2.123,-1.155 2.105,-0.976 2.096,-0.956 3.178,1.134 5.302,10.239 8.72,21.059 9.979,32.531 0.217,1.977 0.423,3.965 0.187,5.981 -0.134,1.149 -0.477,2.111 -1.263,2.931 0.396,1.651 2.388,3.347 4.157,3.516 1.695,0.161 3.304,-0.144 4.807,-0.956 0.945,-0.825 0.923,-2.017 1.15,-3.11 0.105,-0.505 0.206,-1.012 0.286,-1.592 0.35,1.365 -0.553,2.604 -0.167,3.903 0.432,0.39 0.973,0.335 1.49,0.353 2.247,0.079 4.09,0.946 5.715,2.535 2.286,2.235 4.225,4.771 6.423,7.082 3.288,3.456 7.163,5.891 11.598,7.589 5.486,2.099 11.162,2.616 16.96,2.442 0.856,-0.025 1.636,-0.504 2.509,-0.36 12.057,-3.841 22.663,-9.807 30.024,-20.519 -0.062,-0.675 -0.599,-0.514 -0.96,-0.473 -1.279,0.148 -1.843,-0.536 -2.067,-1.659 -0.448,-2.246 -0.546,-4.536 -0.851,-6.802 -0.69,-5.142 -0.889,-10.349 -2.04,-15.43 -0.126,-0.555 -0.186,-1.142 -0.594,-1.584 -0.192,-0.208 -0.434,-0.112 -0.648,0.01 -0.881,0.996 -1.055,2.32 -1.589,3.478 -0.826,1.788 -1.908,3.388 -3.088,4.951 C 95.524,49.44 90.062,49.607 87.108,46.79 83.474,43.324 81.295,39.075 79.586,34.494 77.324,28.43 76.314,22.091 75.541,15.704 75.278,13.533 75.157,11.35 74.957,9.175 74.823,7.729 75.459,6.854 76.704,6.236 c 2.465,-1.223 5.084,-1.791 7.795,-2.162 2.6,-0.356 5.226,-0.014 7.811,-0.471 2.145,-2.065 2.497,-4.537 0.793,-6.922 -2.436,-3.409 -5.939,-5.476 -9.706,-7.031 -7.078,-2.922 -14.497,-4.658 -22.058,-5.734 -9.372,-1.334 -18.717,-2.865 -28.121,-3.98 -2.571,-0.304 -5.038,0.101 -7.36,1.247 C 17.621,-14.753 10.057,-9.663 3.03,-3.762 1.775,-2.708 0.953,-1.3 0,0"
             style="fill:#ed781e;fill-opacity:1;fill-rule:evenodd;stroke:none"
             id="path40" />
        </g>
        <g
           id="g42"
           transform="translate(265.9121,431.5522)">
          <path
             d="m 0,0 c 0.307,-0.145 0.467,-0.151 0.565,0.28 0.645,2.855 1.1,5.738 1.415,8.647 0.334,3.092 0.706,6.181 1.06,9.271 0.198,1.732 0.287,3.486 0.621,5.192 0.483,2.461 0.557,2.443 3.124,2.142 0.107,-0.013 0.23,0.133 0.346,0.204 3.371,-4.373 5.739,-9.291 7.69,-14.412 3.391,-8.905 4.95,-18.143 4.517,-27.66 -0.249,-5.457 -1.171,-10.844 -2.292,-16.199 -1.013,-4.835 -1.485,-9.76 -1.916,-14.678 -0.322,-3.688 -0.609,-7.365 -0.401,-11.096 0.369,-6.692 1.572,-13.184 3.81,-19.493 -4.835,-3.919 -9.689,-7.805 -15.407,-10.425 -5.368,-2.459 -10.89,-4.453 -16.697,-5.605 -0.172,-0.034 -0.322,-0.175 -0.481,-0.267 -5.906,4.906 -12.767,7.524 -20.621,8.513 9.311,3.366 17.761,7.672 25.013,14.627 -1.009,0.239 -1.312,-0.254 -1.678,-0.547 -8.932,-7.174 -18.813,-12.411 -30.125,-14.676 -5.747,-1.151 -11.541,-2.088 -17.425,-1.579 -7.533,0.653 -14.252,3.567 -19.956,8.412 -9.293,7.893 -16.228,17.484 -19.725,29.332 -0.522,1.771 -1.011,3.549 -1.287,5.603 1.436,-1.268 2.489,-2.406 2.64,-4.306 0.18,-2.277 0.997,-4.446 1.789,-6.588 0.204,-0.553 0.369,-1.276 1.288,-0.672 0.724,0.477 0.605,-0.361 0.717,-0.629 2.683,-6.449 6.229,-12.35 11.389,-17.113 4.7,-4.338 9.976,-7.778 16.318,-9.313 3.376,-0.817 6.736,-0.363 10.061,0.172 7.577,1.218 15.051,2.935 22.019,6.246 8.718,4.142 16.633,9.326 21.549,18.046 0.28,0.497 0.588,0.988 0.798,1.515 0.877,2.203 1.597,4.509 4.08,5.524 0.08,0.033 0.143,0.127 0.197,0.204 0.502,0.72 1.707,1.784 1.263,2.128 -0.706,0.55 -1.154,-0.824 -1.759,-1.311 -2.514,-2.024 -5.43,-3.099 -8.515,-3.839 -6.804,-1.631 -13.724,-2.557 -20.652,-3.452 -7.397,-0.955 -14.783,-2.007 -22.173,-3.012 -3.72,-0.507 -7.44,-1.01 -11.161,-1.502 -1.972,-0.261 -3.773,0.272 -5.471,1.239 -7.966,4.538 -15.637,9.498 -22.203,15.971 -2.066,2.036 -3.819,4.353 -4.953,7.072 4.761,-5.555 10.835,-9.474 16.905,-13.353 3.868,-2.472 7.746,-5.021 12.299,-6.175 2.326,-0.589 4.634,-0.075 6.922,0.207 4.36,0.537 8.695,1.27 13.049,1.865 10.315,1.411 20.648,2.73 30.577,6.069 4.127,1.388 8.046,3.224 11.249,6.244 3.365,3.173 3.508,4.552 1.303,8.558 0.548,0.675 1.334,0.665 2.089,0.702 2.655,0.126 5.152,0.849 7.57,1.913 0.996,0.439 1.6,1.115 1.773,2.219 0.827,5.277 1.187,10.561 0.841,15.914 C 1.669,-9.572 1.015,-5.365 -0.099,-1.215 -0.208,-0.808 -0.347,-0.379 0,0"
             style="fill:#b96625;fill-opacity:1;fill-rule:evenodd;stroke:none"
             id="path44" />
        </g>
        <g
           id="g46"
           transform="translate(414.8984,289.2031)">
          <path
             d="M 0,0 C 0.586,1.54 1.251,3.092 3.228,3.061 5.364,3.026 6.785,1.79 7.702,-0.077 7.702,-0.151 7.706,-0.227 7.713,-0.3 6.98,-0.514 7.19,-1.083 7.219,-1.591 8.004,-15.683 7.682,-29.76 4.061,-43.443 1.376,-53.585 -3.703,-62.76 -10.05,-71.161 c -5.222,-6.916 -11.497,-12.693 -18.865,-17.271 -5.104,-2.536 -10.588,-3.666 -16.181,-4.41 -2.55,-0.338 -5.136,-0.566 -7.679,-0.517 -7.193,0.139 -14.352,0.71 -21.309,2.799 -3.114,0.936 -6.134,2.063 -9.004,3.592 -0.641,0.34 -1.266,0.672 -1.551,1.396 -0.652,3.908 -1.601,7.729 -3.294,11.333 -0.191,0.406 -0.273,0.796 -0.177,1.238 1.222,5.675 1.426,11.407 0.936,17.178 0.436,0.25 0.616,-0.154 0.819,-0.338 5.667,-5.165 12.421,-7.755 19.956,-8.633 7.885,-0.917 15.678,-0.815 23.285,1.748 12.6,4.247 22.813,11.775 30.875,22.338 7.093,9.293 11.131,19.733 12.267,31.334 0.256,2.603 0.534,5.204 0.73,7.812 C 0.801,-0.985 1.289,-0.007 0,0"
             style="fill:#ed781e;fill-opacity:1;fill-rule:evenodd;stroke:none"
             id="path48" />
        </g>
        <g
           id="g50"
           transform="translate(185.1963,175.9258)">
          <path
             d="m 0,0 c 0.215,0.754 0.43,1.507 0.645,2.26 0.718,0.382 1.181,-0.169 1.642,-0.516 3.563,-2.681 7.75,-3.776 11.982,-4.762 0.372,-0.086 0.758,-0.077 1.139,-0.059 1.511,0.07 1.967,0.678 1.282,2.004 -1.877,3.635 -2.674,7.563 -2.907,11.557 -0.285,4.893 1.294,9.297 4.556,13.003 1.964,2.232 4.176,4.174 7.057,5.19 0.538,0.189 0.984,0.579 1.49,0.843 0.853,0.446 1.089,1.088 0.844,2.017 -0.185,0.707 -0.559,1.463 0.054,2.168 3.994,-3.901 8.34,-7.378 12.983,-10.463 5.132,-3.41 10.592,-6.222 16.404,-8.29 1.194,-0.425 1.065,-0.755 0.425,-1.584 C 53.509,8.074 50.109,2.351 46.973,-3.55 46.068,-5.252 46.04,-6.861 46.388,-8.63 c 0.78,-3.964 1.404,-7.948 1.814,-11.974 0.152,-1.488 -0.413,-2.13 -1.613,-2.559 -3.322,-1.187 -6.722,-2.115 -10.22,-2.552 -11.53,-1.442 -23.105,-2.232 -34.729,-2.322 -1.215,-0.009 -1.759,0.161 -1.34,1.515 0.296,0.961 -0.297,1.842 -0.531,2.751 0.368,0.392 0.873,0.29 1.329,0.382 4.477,0.912 8.534,2.571 11.329,6.444 0.392,0.543 0.725,1.112 0.875,1.773 0.386,1.689 0.089,2.433 -1.387,3.33 -1.418,0.863 -2.879,1.659 -4.17,2.717 -0.51,0.418 -1.088,0.784 -1.213,1.512 0.192,0.397 0.315,0.762 -0.147,1.099 -1.929,1.41 -3.34,3.327 -4.922,5.077 -0.266,0.293 -0.511,0.556 -0.95,0.454 C 0.027,-0.819 0.031,-0.4 0,0"
             style="fill:#b96625;fill-opacity:1;fill-rule:evenodd;stroke:none"
             id="path52" />
        </g>
        <g
           id="g54"
           transform="translate(148.043,332.8716)">
          <path
             d="m 0,0 c -0.552,0.715 -1.136,1.407 -1.649,2.148 -1.745,2.52 -3.681,4.797 -6.617,6.031 -0.96,0.403 -1.744,1.14 -2.496,1.885 -0.792,0.785 -0.808,1.368 0.17,2.044 1.997,1.38 4.008,2.746 5.835,4.361 0.728,0.643 1.035,1.255 0.885,2.336 -0.5,3.586 -0.751,7.205 -0.206,10.816 0.244,1.614 0.346,1.657 1.71,0.69 6.677,-4.737 13.873,-8.489 21.465,-11.526 7.4,-2.96 15.045,-4.709 23.015,-5.141 1.948,-0.105 3.965,0.132 5.851,-0.89 1.75,-0.948 3.726,-1.411 5.743,-1.985 -5.705,-12.381 -10.209,-25.081 -12.546,-38.48 -0.728,-0.552 -1.373,-0.046 -1.999,0.205 -4.657,1.876 -8.89,4.542 -13.172,7.117 -7.239,4.355 -13.914,9.48 -20.285,15.008 C 3.73,-3.669 1.788,-1.913 0,0"
             style="fill:#ed781e;fill-opacity:1;fill-rule:evenodd;stroke:none"
             id="path56" />
        </g>
        <g
           id="g58"
           transform="translate(207.4795,217.6035)">
          <path
             d="m 0,0 c 0.407,0.023 0.708,0.238 0.981,0.522 2.814,2.928 6.432,3.787 10.307,4.112 7.46,0.627 14.58,-0.894 21.638,-3.099 8.819,-2.756 17.275,-6.355 25.593,-10.354 4.377,-2.106 8.619,-4.423 12.792,-6.887 -3.082,-5.301 -6.759,-10.113 -11.513,-14.047 -0.467,-0.388 -0.928,-0.569 -1.546,-0.528 C 34.855,-28.724 15.569,-19.097 0.623,-0.946 0.384,-0.656 0.206,-0.316 0,0"
             style="fill:#dac843;fill-opacity:1;fill-rule:evenodd;stroke:none"
             id="path60" />
        </g>
        <g
           id="g62"
           transform="translate(278.1621,198.7969)">
          <path
             d="m 0,0 c 2.775,-7.284 7.036,-13.491 13.126,-18.439 2.564,-2.084 5.26,-2.284 8.369,-1.6 7.448,1.636 14.618,3.991 21.437,7.421 3.032,1.525 5.742,3.487 8.271,5.725 -0.557,-5.977 -2.826,-11.284 -6.284,-16.136 -2.76,-3.873 -6.059,-7.201 -9.894,-10.007 -0.299,-0.22 -0.662,-0.393 -0.824,-0.996 1.413,0.426 2.466,1.262 3.584,1.968 0.387,0.243 0.71,0.652 1.141,-0.018 2.183,-3.397 4.574,-6.693 5.264,-10.814 0.181,-1.072 0.364,-2.157 -0.103,-3.213 -0.978,1.927 -2.786,2.72 -4.639,3.546 -9.872,4.402 -20.074,4.613 -30.352,2.07 -5.621,-1.391 -10.612,-4.217 -14.502,-8.688 -0.25,-0.287 -0.487,-0.593 -0.903,-0.65 -1.078,3.621 -0.58,7.216 0.144,10.816 0.731,3.636 1.934,7.143 2.863,10.725 0.286,1.103 0.186,1.993 -0.399,2.968 -2.346,3.919 -4.454,7.961 -6.178,12.2 -0.379,0.933 -0.273,1.476 0.514,2.165 3.555,3.116 6.633,6.651 8.994,10.773 0.057,0.1 0.244,0.125 0.371,0.184"
             style="fill:#b96625;fill-opacity:1;fill-rule:evenodd;stroke:none"
             id="path64" />
        </g>
        <g
           id="g66"
           transform="translate(308.1582,300.5435)">
          <path
             d="m 0,0 c -3.032,-2.984 -8.661,-3.463 -12.414,-1.072 -3.407,2.172 -6.257,4.76 -7.735,8.626 -0.582,1.524 -0.447,1.871 1.098,2.154 9.724,1.775 18.436,5.893 26.141,11.947 6.775,5.321 12.415,11.701 15.72,19.853 0.172,0.426 0.298,0.917 0.774,1.155 1.166,1.874 2.351,3.727 3.118,5.829 0.399,1.091 0.74,2.101 0.221,3.217 1.162,1.658 2.999,2.47 4.567,3.613 0.54,0.392 0.86,0.068 0.876,-0.565 0.011,-0.409 -0.08,-0.891 0.544,-0.958 0.039,-0.692 -0.498,-1.188 -0.572,-1.882 -0.276,-2.593 0.086,-4.749 2.84,-5.95 1.197,-0.523 2.186,-1.512 3.308,-2.229 0.951,-0.606 1.088,-1.321 0.575,-2.286 -1.429,-2.681 -3.56,-4.683 -6.078,-6.299 -0.785,-0.504 -1.37,-1.107 -1.809,-1.944 C 28.411,27.959 25.049,23.143 20.874,18.893 13.804,11.697 5.09,7.812 -4.687,6.022 -7.543,5.5 -10.433,5.268 -13.331,5.146 -13.739,5.129 -14.394,5.237 -14.397,4.72 -14.402,4.138 -13.738,4.347 -13.353,4.33 -9.816,4.174 -6.327,4.613 -2.879,5.333 -1.9,5.537 -1.522,5.339 -1.294,4.363 -0.95,2.888 -0.439,1.452 0,0"
             style="fill:#b96625;fill-opacity:1;fill-rule:evenodd;stroke:none"
             id="path68" />
        </g>
        <g
           id="g70"
           transform="translate(212.9805,209.6309)">
          <path
             d="m 0,0 c -0.116,-0.828 0.129,-1.624 0.388,-2.367 0.335,-0.966 0.08,-1.531 -0.78,-1.979 -1.007,-0.524 -2.032,-1.026 -3.023,-1.562 -5.589,-3.028 -9.176,-7.597 -10,-14.003 -0.663,-5.154 0.45,-10.052 2.704,-14.706 0.869,-1.796 0.372,-2.72 -1.644,-2.517 -4.729,0.477 -9.15,1.954 -13.099,4.683 -0.54,0.372 -1.003,0.874 -1.686,1.006 -1.323,1.757 -3.157,3.022 -4.544,4.718 -0.268,0.33 -0.548,0.65 -0.822,0.974 0.262,0.34 0.649,0.388 1.028,0.398 3.887,0.108 6.203,2.408 7.704,5.679 1.648,3.591 2.348,7.399 2.53,11.359 0.215,4.668 -0.835,9.183 -1.27,13.772 -0.482,5.079 0.011,9.989 3.067,14.33 0.734,0.956 1.823,1.513 2.646,2.363 0.761,0.788 1.137,0.75 1.665,-0.329 2.788,-5.694 6.149,-11.046 9.994,-16.087 C -3.581,3.687 -1.766,1.864 0,0"
             style="fill:#ed781e;fill-opacity:1;fill-rule:evenodd;stroke:none"
             id="path72" />
        </g>
        <g
           id="g74"
           transform="translate(402.0332,207.0596)">
          <path
             d="m 0,0 c -4.379,-6.039 -9.796,-10.988 -15.907,-15.217 -11.788,-8.158 -24.888,-11.779 -39.166,-11.482 -6.004,0.125 -11.977,0.435 -17.905,1.47 -1.155,0.204 -1.127,0.564 -0.754,1.449 0.965,2.288 1.574,4.684 1.925,7.14 0.094,0.656 0.166,1.074 1.03,0.844 6.252,-1.655 12.65,-1.553 19.014,-1.268 8.248,0.368 16.334,1.911 24.251,4.252 5.579,1.651 10.613,4.415 15.296,7.837 0.225,0.164 0.481,0.287 0.723,0.429 3.433,1.009 6.632,2.567 9.811,4.176 C -1.158,-0.105 -0.684,0.439 0,0"
             style="fill:#dac843;fill-opacity:1;fill-rule:evenodd;stroke:none"
             id="path76" />
        </g>
        <g
           id="g78"
           transform="translate(228.4014,354.3906)">
          <path
             d="m 0,0 c -6.969,-2.648 -14.196,-4.229 -21.577,-5.144 -4.499,-0.558 -8.701,0.466 -12.663,2.567 -4.359,2.311 -8.315,5.163 -11.684,8.805 -0.693,0.75 -1.101,1.473 -0.93,2.524 0.221,1.355 0.345,2.727 0.511,4.09 1.03,1.003 2.386,0.793 3.626,0.919 2.982,0.305 5.966,-0.064 8.933,-0.1 3.98,-0.047 7.898,-0.373 11.758,-1.1 C -13.94,11.036 -6.817,7.456 -0.823,1.758 -0.356,1.313 0.414,0.904 0,0"
             style="fill:#dd7f7d;fill-opacity:1;fill-rule:evenodd;stroke:none"
             id="path80" />
        </g>
        <g
           id="g82"
           transform="translate(228.4014,354.3906)">
          <path
             d="m 0,0 c -0.971,1.804 -2.529,3.065 -4.144,4.2 -5.886,4.138 -12.226,7.276 -19.448,8.283 -5.022,0.701 -10.072,1.227 -15.143,1.127 -2.537,-0.05 -5.112,-0.126 -7.608,-0.768 0.073,1.768 -0.122,1.916 -1.677,1.218 -0.432,-0.194 -0.935,-0.363 -1.234,-0.697 -0.993,-1.112 -1.427,-0.632 -2.166,0.382 -1.084,1.484 -1.049,2.706 0.114,4.03 0.311,0.355 0.51,0.806 0.795,1.185 1.596,2.126 2.256,2.215 4.465,0.825 2.378,-1.495 4.819,-2.889 7.194,-4.386 2.43,-1.531 5.038,-1.798 7.814,-1.412 10.913,1.518 21.831,3.004 32.748,4.5 2.022,0.278 4.049,0.531 6.068,0.835 0.646,0.097 1.083,-0.027 1.405,-0.639 0.665,-1.262 1.381,-2.498 2.074,-3.747 0.749,-1.349 1.276,-1.371 2.082,-0.096 0.945,1.494 1.72,3.076 2.361,4.718 0.303,0.775 0.715,1.16 1.612,1.326 2.976,0.548 5.936,1.203 9.014,2.353 -0.64,-2.362 -1.743,-4.215 -2.907,-6.03 C 20.267,12.286 15.891,8.666 11.005,5.595 10.038,4.987 9.042,4.424 8.087,3.796 7.461,3.384 7.092,3.514 6.742,4.155 6.141,5.254 5.299,6.172 4.333,6.958 3.34,7.765 2.845,7.591 2.58,6.349 2.281,4.956 1.886,3.559 1.821,2.15 1.76,0.831 1.117,0.285 0,0"
             style="fill:#b14851;fill-opacity:1;fill-rule:evenodd;stroke:none"
             id="path84" />
        </g>
        <g
           id="g86"
           transform="translate(191.8223,168.46)">
          <path
             d="m 0,0 c 1.337,-1.825 3.341,-2.768 5.201,-3.885 2.138,-1.284 2.666,-3.191 1.222,-5.307 -3.18,-4.659 -7.798,-6.711 -13.28,-7.113 -1.247,2.625 -5.242,3.581 -8.757,2.742 -1.052,-0.25 -2.09,-0.561 -3.14,-0.846 -0.573,3.958 -3.134,6.178 -7.123,6.132 -0.862,-0.01 -1.221,0.121 -1.331,1.094 -0.172,1.539 -1.231,2.419 -3.265,3.068 0.201,0.598 0.766,0.8 1.203,1.092 6.103,4.081 12.83,6.801 19.767,9.071 1.015,0.332 2.167,0.445 2.877,1.418 0.193,-0.302 0.387,-0.604 0.58,-0.906 0.552,-0.056 0.78,-0.503 1.041,-0.89 C -3.696,3.726 -2.191,1.967 -0.273,0.59 -0.08,0.45 0.093,0.281 0,0"
             style="fill:#ed781e;fill-opacity:1;fill-rule:evenodd;stroke:none"
             id="path88" />
        </g>
        <g
           id="g90"
           transform="translate(193.5337,229.416)">
          <path
             d="m 0,0 c 0.285,-0.325 -0.054,-0.505 -0.177,-0.728 -2.373,-4.307 -3.042,-8.908 -2.444,-13.75 0.604,-4.883 1.574,-9.737 1.201,-14.705 -0.338,-4.501 -1.266,-8.848 -3.789,-12.657 -1.818,-2.745 -4.543,-3.931 -7.851,-3.697 -5.47,6.523 -6.661,13.902 -4.221,21.92 1.948,6.399 5.695,11.774 10.072,16.726 C -5.005,-4.396 -2.557,-2.136 0,0"
             style="fill:#f7b657;fill-opacity:1;fill-rule:evenodd;stroke:none"
             id="path92" />
        </g>
        <g
           id="g94"
           transform="translate(271.8535,148.9658)">
          <path
             d="m 0,0 c 1.971,3.138 5,5.021 8.112,6.783 5.501,3.114 11.459,4.382 17.75,4.433 5.728,0.047 11.393,-0.172 16.818,-2.28 1.95,-0.758 3.91,-1.5 5.742,-2.511 C 49.467,5.85 50.465,5.15 50.396,3.722 49.854,0.416 47.9,-1.697 44.771,-3.006 c 0.273,1.976 10e-4,3.731 -1.05,5.298 -2.147,3.2 -6.878,3.029 -8.814,-0.306 -1.202,-2.072 -1.681,-4.324 -1.689,-6.7 -0.003,-0.995 -1.31,-1.817 -2.229,-1.439 -0.513,0.212 -0.286,0.65 -0.3,0.985 -0.083,2.088 -0.557,4.047 -1.808,5.761 -1.824,2.499 -5.569,3.205 -8.345,1.584 -2.349,-1.371 -3.101,-4.412 -1.793,-7.319 0.288,-0.636 0.647,-1.243 0.986,-1.89 -2.092,-0.317 -2.123,-0.322 -2.515,1.58 C 16.602,-2.486 15.327,0.067 12.6,1.6 8.041,4.159 3.606,1.716 3.206,-3.516 3.178,-3.89 3.171,-4.265 3.143,-4.887 1.286,-3.616 0.585,-1.847 0,0"
             style="fill:#ed781e;fill-opacity:1;fill-rule:evenodd;stroke:none"
             id="path96" />
        </g>
        <g
           id="g98"
           transform="translate(197.0225,458.7031)">
          <path
             d="m 0,0 c -1.046,0.249 -2.019,0.718 -3.103,0.881 -2.778,0.418 -4.374,-1.226 -5.828,-3.178 -0.947,0.163 -1.241,0.475 -0.657,1.465 1.182,2.002 2.769,3.527 4.854,4.48 1.085,0.497 1.852,1.2 2.549,2.159 6.349,8.737 14.998,13.623 25.664,14.775 7.125,0.769 14.266,0.696 21.283,-1.122 0.415,-0.107 0.823,-0.236 1.235,-0.355 -0.605,-0.493 -1.18,0.04 -1.77,0.053 C 35.44,19.364 27,18.171 19.567,12.982 16.379,10.757 13.948,7.763 11.38,4.899 9.371,2.657 7.563,0.106 4.24,-0.433 3.287,-0.587 2.343,-0.475 1.399,-0.564 0.705,-0.366 0.577,0.362 0.064,0.843 0.078,0.529 0.222,0.235 0,0"
             style="fill:#f7b657;fill-opacity:1;fill-rule:evenodd;stroke:none"
             id="path100" />
        </g>
        <g
           id="g102"
           transform="translate(330.2598,203.6309)">
          <path
             d="m 0,0 c 3.926,-2.511 8.256,-4.022 12.742,-5.139 5.303,-1.32 10.687,-1.846 16.153,-2.084 7.958,-0.345 15.647,0.755 23.185,3.202 1.213,0.392 2.34,1.051 3.644,1.162 -2.481,-1.88 -5.289,-3.161 -8.161,-4.275 -6.768,-2.628 -13.86,-3.911 -21.019,-4.896 -5.861,-0.807 -11.742,-0.9 -17.635,-0.529 -2.556,0.162 -5.112,0.387 -7.592,1.113 -0.554,0.162 -1.141,0.296 -1.014,1.097 C 0.847,-6.881 0.415,-3.439 0,0"
             style="fill:#b96625;fill-opacity:1;fill-rule:evenodd;stroke:none"
             id="path104" />
        </g>
        <g
           id="g106"
           transform="translate(148.043,332.8716)">
          <path
             d="m 0,0 c 0.558,0.041 0.835,-0.389 1.173,-0.709 6.289,-5.98 12.959,-11.483 20.205,-16.28 5.143,-3.404 10.388,-6.625 15.931,-9.34 1.224,-0.599 2.451,-1.247 3.851,-1.382 -0.299,-2.879 -0.598,-5.757 -0.91,-8.768 -1.773,0.563 -3.389,1.345 -4.973,2.187 -9.077,4.831 -16.636,11.521 -23.502,19.089 -4.232,4.667 -8.09,9.612 -11.65,14.8 C 0.049,-0.292 0.04,-0.136 0,0"
             style="fill:#b96625;fill-opacity:1;fill-rule:evenodd;stroke:none"
             id="path108" />
        </g>
        <g
           id="g110"
           transform="translate(250.1948,337.4961)">
          <path
             d="m 0,0 c -7.868,-1.843 -15.873,-2 -23.875,-1.696 -5.146,0.195 -10.265,0.912 -15.089,2.948 -0.254,0.108 -0.553,0.11 -0.829,0.162 2.702,2.424 5.707,4.229 9.411,4.607 3.529,0.361 6.908,1.705 10.546,1.432 C -12.483,6.9 -5.88,4.434 0,0"
             style="fill:#dac843;fill-opacity:1;fill-rule:evenodd;stroke:none"
             id="path112" />
        </g>
        <g
           id="g114"
           transform="translate(276.0928,145.3232)">
          <path
             d="M 0,0 C -0.01,1.062 0.395,2.302 1.203,3.414 2.385,5.04 3.986,5.625 5.949,5.136 8.495,4.501 10.204,2.861 11.215,0.521 12.252,-1.88 12.549,-4.4 12.059,-7.003 11.941,-7.629 11.741,-7.757 11.12,-7.628 8.226,-7.023 5.407,-6.209 2.834,-4.708 0.694,-3.459 -0.041,-2.284 0,0"
             style="fill:#dfefea;fill-opacity:1;fill-rule:evenodd;stroke:none"
             id="path116" />
        </g>
        <g
           id="g118"
           transform="translate(296.0625,150.958)">
          <path
             d="m 0,0 c 1.672,0.021 3.201,-0.785 4.262,-2.561 2.026,-3.393 1.188,-8.977 -1.74,-11.479 -0.43,-0.368 -0.658,-0.174 -0.964,0.069 -2.489,1.981 -4.653,4.258 -6.04,7.141 C -6.231,-3.196 -4.232,0.037 0,0"
             style="fill:#dfefea;fill-opacity:1;fill-rule:evenodd;stroke:none"
             id="path120" />
        </g>
        <g
           id="g122"
           transform="translate(154.4419,151.2197)">
          <path
             d="M 0,0 C 2.99,3.868 5.832,7.34 10.809,7.978 13.411,8.311 15.694,7.239 16.984,5.02 17.867,3.5 17.572,2.452 16.041,1.67 15.999,1.648 15.952,1.631 15.917,1.601 13.134,-0.899 9.78,-0.739 6.393,-0.46 4.367,-0.293 2.338,-0.167 0,0"
             style="fill:#dfefea;fill-opacity:1;fill-rule:evenodd;stroke:none"
             id="path124" />
        </g>
        <g
           id="g126"
           transform="translate(306.0498,142.7129)">
          <path
             d="M 0,0 C 0.057,2.527 0.105,5.042 1.358,7.364 2.271,9.061 3.589,9.893 5.521,9.763 7.472,9.632 8.697,8.548 9.288,6.773 10.074,4.412 9.678,2.208 7.881,0.443 5.902,-1.501 3.61,-3.038 1.133,-4.307 0.187,-4.791 -0.019,-4.46 -0.005,-3.572 0.015,-2.382 0.001,-1.19 0,0"
             style="fill:#dfefea;fill-opacity:1;fill-rule:evenodd;stroke:none"
             id="path128" />
        </g>
        <g
           id="g130"
           transform="translate(208.9951,339.1562)">
          <path
             d="m 0,0 c -6.619,-6.024 -11.449,-13.325 -15.233,-21.37 -0.178,-0.378 -0.407,-0.733 -0.638,-1.143 -0.287,0.387 -0.121,0.688 -0.039,0.981 2.368,8.446 5.465,16.62 9.107,24.595 0.441,0.964 0.941,1.315 1.917,0.891 1.527,-0.929 2.841,-2.161 4.398,-3.05 C -0.177,0.727 0.157,0.473 0,0"
             style="fill:#ed771e;fill-opacity:1;fill-rule:evenodd;stroke:none"
             id="path132" />
        </g>
        <g
           id="g134"
           transform="translate(402.0332,207.0596)">
          <path
             d="m 0,0 c -2.57,-1.205 -5.075,-2.552 -7.731,-3.574 -0.841,-0.323 -1.657,-0.713 -2.482,-1.076 -0.448,-0.198 -0.891,-0.393 -1.28,0.104 6.003,4.595 11.402,9.781 15.883,15.907 3.302,4.515 6.034,9.349 8.465,14.367 0.287,0.064 0.418,-0.028 0.338,-0.334 C 10.07,16.635 6.063,8.323 0.701,0.697 0.516,0.432 0.236,0.231 0,0"
             style="fill:#f4e07b;fill-opacity:1;fill-rule:evenodd;stroke:none"
             id="path136" />
        </g>
        <g
           id="g138"
           transform="translate(148.311,155.1074)">
          <path
             d="M 0,0 C 2.966,4.209 6.491,7.21 11.437,8.168 13.498,8.566 15.107,7.535 15.396,5.854 15.487,5.324 15.537,4.851 14.791,4.665 12.248,4.03 10.355,2.367 8.568,0.573 8.111,0.114 7.641,-0.124 6.975,-0.196 4.736,-0.437 2.52,-0.258 0,0"
             style="fill:#dfefea;fill-opacity:1;fill-rule:evenodd;stroke:none"
             id="path140" />
        </g>
        <g
           id="g142"
           transform="translate(187.0098,451.9092)">
          <path
             d="m 0,0 c -0.211,-3.901 -1.034,-7.58 -2.907,-10.987 -0.66,-1.201 -1.57,-2.146 -2.725,-2.862 -1.128,-0.698 -1.509,-0.528 -1.925,0.775 -0.462,1.445 -0.213,2.838 0.346,4.173 1.396,3.336 3.005,6.571 4.85,9.684 0.434,0.73 0.959,1.838 1.782,1.581 C 0.438,2.048 -0.213,0.779 0,0"
             style="fill:#fefefe;fill-opacity:1;fill-rule:evenodd;stroke:none"
             id="path144" />
        </g>
        <g
           id="g146"
           transform="translate(168.0815,147.6006)">
          <path
             d="m 0,0 c -0.766,-0.058 -1.508,0.058 -2.326,0.312 0.473,1.001 1.384,1.532 2.171,2.131 3.322,2.526 7.047,4.069 11.263,4.095 1.604,0.01 3.216,-0.317 4.321,-1.726 C 15.485,4.06 14.899,3.998 14.401,3.9 10.059,3.041 5.9,1.528 1.658,0.315 1.105,0.157 0.522,0.252 0,0"
             style="fill:#dfeeea;fill-opacity:1;fill-rule:evenodd;stroke:none"
             id="path148" />
        </g>
        <g
           id="g150"
           transform="translate(168.0815,147.6006)">
          <path
             d="m 0,0 c 4.612,1.851 9.401,3.114 14.226,4.253 0.457,0.108 0.965,0.014 1.203,0.559 0.687,-0.668 0.917,-1.531 0.97,-2.44 C 16.486,0.908 15.92,0.062 14.443,-0.057 9.632,-0.44 4.811,-0.819 0,0"
             style="fill:#b0cac1;fill-opacity:1;fill-rule:evenodd;stroke:none"
             id="path152" />
        </g>
        <g
           id="g154"
           transform="translate(179.7007,423.626)">
          <path
             d="m 0,0 c -0.147,-3.003 -0.777,-5.894 -1.763,-8.711 -0.18,-0.512 -0.517,-0.581 -1.018,-0.398 -1.31,0.48 -2.444,1.268 -3.61,2.002 -0.445,0.279 -0.373,0.742 -0.314,1.164 0.29,2.056 0.595,4.11 0.923,6.363 0.853,-0.978 1.098,-2.531 2.622,-2.394 C -1.846,-1.855 -1.002,-0.863 0,0"
             style="fill:#197373;fill-opacity:1;fill-rule:evenodd;stroke:none"
             id="path156" />
        </g>
        <g
           id="g158"
           transform="translate(175.2583,371.2075)">
          <path
             d="M 0,0 C -0.964,1.888 -1.778,3.639 -2.252,5.511 -2.534,6.62 -1.724,7.471 -1.187,8.344 -1,8.647 -0.696,8.463 -0.451,8.282 0.878,7.302 2.211,6.329 3.545,5.356 4.021,5.008 4.009,4.665 3.521,4.363 1.919,3.374 1.176,1.688 0,0"
             style="fill:#533538;fill-opacity:1;fill-rule:evenodd;stroke:none"
             id="path160" />
        </g>
        <g
           id="g162"
           transform="translate(208.9951,339.1562)">
          <path
             d="m 0,0 c -0.927,1.104 -2.36,1.507 -3.398,2.451 -0.521,0.473 -0.994,1 -1.488,1.503 C -1.846,3.534 1.207,3.348 4.349,3.398 2.845,2.313 1.42,1.159 0,0"
             style="fill:#b96525;fill-opacity:1;fill-rule:evenodd;stroke:none"
             id="path164" />
        </g>
        <g
           id="g166"
           transform="translate(243.3594,374.7554)">
          <path
             d="m 0,0 c -0.828,-1.903 -1.479,-3.562 -2.651,-5.146 -0.751,1.322 -1.435,2.537 -2.133,3.744 -0.269,0.466 -0.156,0.647 0.381,0.72 C -3.006,-0.492 -1.617,-0.254 0,0"
             style="fill:#fbfbfb;fill-opacity:1;fill-rule:evenodd;stroke:none"
             id="path168" />
        </g>
        <g
           id="g170"
           transform="translate(171.3735,376.8867)">
          <path
             d="M 0,0 C -0.9,2.279 -1.48,4.412 -1.815,6.811 -0.606,5.796 0.461,4.879 1.553,3.993 1.928,3.687 1.928,3.425 1.693,3.029 1.14,2.096 0.63,1.136 0,0"
             style="fill:#f9f9f9;fill-opacity:1;fill-rule:evenodd;stroke:none"
             id="path172" />
        </g>
        <g
           id="g174"
           transform="translate(231.0215,355.4131)">
          <path
             d="M 0,0 C 0.33,1.885 0.605,3.461 0.901,5.151 2.207,4.487 2.811,3.306 3.525,2.223 3.832,1.758 3.438,1.647 3.165,1.512 2.194,1.034 1.214,0.577 0,0"
             style="fill:#f7f7f7;fill-opacity:1;fill-rule:evenodd;stroke:none"
             id="path176" />
        </g>
        <g
           id="g178"
           transform="translate(180.5576,363.1255)">
          <path
             d="M 0,0 C -2.449,2.857 -2.669,2.906 0.413,4.386 0.275,2.923 0.146,1.542 0,0"
             style="fill:#f6f5f5;fill-opacity:1;fill-rule:evenodd;stroke:none"
             id="path180" />
        </g>
        <g
           id="g182"
           transform="translate(415.2266,232.4531)">
          <path
             d="M 0,0 C -0.112,0.111 -0.226,0.223 -0.338,0.334 0.049,1.271 0.437,2.207 0.824,3.144 0.876,1.981 0.555,0.955 0,0"
             style="fill:#ac9b58;fill-opacity:1;fill-rule:evenodd;stroke:none"
             id="path184" />
        </g>
        <g
           id="g186"
           transform="translate(335.0811,352.2524)">
          <path
             d="m 0,0 c 0.787,-0.594 0.961,-1.289 0.557,-2.231 -0.862,-2.007 -1.597,-4.071 -2.913,-5.849 -0.276,-0.372 -0.441,-0.863 -0.983,-0.966 -0.063,1.018 0.673,1.734 1.001,2.605 0.552,1.463 1.171,2.905 1.832,4.322 0.396,0.847 0.153,1.197 -0.702,1.399 -2.126,0.501 -4.259,0.937 -6.443,1.095 -0.828,0.06 -1.677,0.028 -2.425,0.553 C -6.627,1.651 -3.31,0.874 0,0"
             style="fill:#261913;fill-opacity:1;fill-rule:evenodd;stroke:none"
             id="path188" />
        </g>
        <g
           id="g190"
           transform="translate(265.9121,431.5522)">
          <path
             d="m 0,0 c 1.857,-6.299 2.704,-12.739 2.48,-19.294 -0.123,-3.654 -0.229,-7.317 -1.017,-10.925 -0.225,-1.029 -0.712,-1.591 -1.577,-2.003 -2.564,-1.222 -5.252,-1.945 -8.089,-2.127 -0.711,-0.046 -1.415,-0.178 -2.122,-0.27 -3.761,-0.022 -7.522,-0.022 -11.215,0.845 -0.739,0.173 -1.476,0.37 -2.196,0.611 -4.327,1.45 -4.572,1.995 -4.156,6.546 0.634,6.926 1.462,13.816 3.561,20.472 1.697,5.383 3.807,10.575 7.955,14.648 4.194,4.119 9.217,3.738 12.723,-0.964 C -1.95,5.256 -0.833,2.699 0,0"
             style="fill:#231815;fill-opacity:1;fill-rule:evenodd;stroke:none"
             id="path192" />
        </g>
        <g
           id="g194"
           transform="translate(184.0737,386.9443)">
          <path
             d="m 0,0 c -0.791,1.459 -1.64,2.88 -2.224,4.454 -0.498,1.345 -0.358,2.458 0.537,3.58 1.756,2.206 4.149,3.267 6.789,3.867 0.766,0.174 1.222,-0.258 1.246,-1.132 C 6.395,9.027 6.166,7.34 5.342,5.799 4.216,3.694 3.42,1.457 2.609,-0.773 2.259,-1.736 2.014,-2.513 1.19,-1.081 1.119,-0.956 0.857,-0.94 0.685,-0.874 0.241,-0.751 0.079,-0.409 0,0"
             style="fill:#f7b657;fill-opacity:1;fill-rule:evenodd;stroke:none"
             id="path196" />
        </g>
        <g
           id="g198"
           transform="translate(248.9663,449.5278)">
          <path
             d="M 0,0 C 0.351,0.017 0.62,0.197 0.868,0.428 1.72,1.218 2.493,1.033 3.163,0.191 3.861,-0.687 3.516,-1.466 2.714,-1.97 0.516,-3.353 -1.428,-5.061 -3.484,-6.727 c -0.371,0.542 0.314,1.172 -0.24,1.597 -0.316,0.519 0.064,0.897 0.288,1.283 C -2.555,-2.332 -1.487,-0.977 0,0"
             style="fill:#f7b656;fill-opacity:1;fill-rule:evenodd;stroke:none"
             id="path200" />
        </g>
        <g
           id="g202"
           transform="translate(197.0225,458.7031)">
          <path
             d="M 0,0 C 0.042,0.58 -0.923,1.271 -0.323,1.546 0.271,1.818 0.508,0.752 0.9,0.276 1.104,0.027 1.235,-0.282 1.399,-0.563 1.584,-1.872 2.063,-3.138 1.943,-4.49 1.913,-4.833 1.89,-5.253 1.504,-5.274 1.077,-5.297 1.099,-4.851 1.042,-4.525 0.775,-2.999 0.722,-1.421 0,0"
             style="fill:#2d1d15;fill-opacity:1;fill-rule:evenodd;stroke:none"
             id="path204" />
        </g>
        <g
           id="g206"
           transform="translate(248.9663,449.5278)">
          <path
             d="m 0,0 c -0.059,-0.83 -0.875,-1.029 -1.31,-1.546 -0.933,-1.112 -1.86,-2.219 -2.413,-3.583 -0.351,-0.176 -0.328,-0.976 -0.887,-0.683 -0.406,0.213 -0.095,0.704 0.045,1.026 C -3.638,-2.63 -2.577,-0.587 0,0"
             style="fill:#2a1c15;fill-opacity:1;fill-rule:evenodd;stroke:none"
             id="path208" />
        </g>
        <g
           id="g210"
           transform="translate(184.0737,386.9443)">
          <path
             d="M 0,0 C 0.349,-0.196 0.536,-0.52 0.685,-0.873 1.031,-1.744 1.393,-2.609 1.713,-3.49 1.802,-3.735 1.882,-4.105 1.572,-4.242 1.226,-4.395 1.096,-4.04 0.976,-3.797 0.518,-2.868 0.087,-1.925 -0.381,-1.001 -0.636,-0.499 -0.481,-0.199 0,0"
             style="fill:#2e1d15;fill-opacity:1;fill-rule:evenodd;stroke:none"
             id="path212" />
        </g>
        <g
           id="g214"
           transform="translate(202.1768,379.8799)">
          <path
             d="M 0,0 C -0.357,0.041 -0.472,0.314 -0.237,0.568 0.629,1.505 1.636,2.283 2.825,2.758 3.195,2.907 3.437,2.604 3.312,2.172 3.252,1.968 0.267,-0.001 0,0"
             style="fill:#2e1d14;fill-opacity:1;fill-rule:evenodd;stroke:none"
             id="path216" />
        </g>
        <g
           id="g218"
           transform="translate(191.8223,168.46)">
          <path
             d="m 0,0 c -2.575,1.671 -4.351,4.078 -6.046,6.56 0.058,0.334 0.16,0.836 0.565,0.371 C -3.573,4.739 -1.678,2.553 0.548,0.655 1.288,0.025 0.423,0.037 0,0"
             style="fill:#281a14;fill-opacity:1;fill-rule:evenodd;stroke:none"
             id="path220" />
        </g>
        <g
           id="g222"
           transform="translate(152.1016,340.603)">
          <path
             d="m 0,0 c -2.093,0.458 -4.01,1.286 -5.784,2.424 -0.793,0.509 -0.785,1.262 -0.293,1.994 1.304,1.939 2.721,3.79 4.349,5.471 0.224,0.231 0.496,0.612 0.828,0.343 C -0.46,9.876 -0.902,9.565 -1.116,9.285 -2.362,7.661 -3.594,6.025 -4.875,4.429 -5.473,3.684 -5.399,3.261 -4.517,2.822 -3.023,2.079 -1.535,1.342 0.075,0.88 0.394,0.789 0.809,0.723 0.769,0.308 0.722,-0.194 0.275,0.025 0,0"
             style="fill:#251913;fill-opacity:1;fill-rule:evenodd;stroke:none"
             id="path224" />
        </g>
        <g
           id="g226"
           transform="translate(261.6274,415.3789)">
          <path
             d="m 0,0 c 2.309,-3.937 2.646,-7.745 1.57,-11.71 -0.385,-1.418 -0.862,-2.809 -1.625,-4.098 -0.382,-0.645 -0.867,-0.989 -1.553,-1.079 -5.731,-0.753 -11.449,-0.967 -17.065,0.728 -3.93,1.184 -3.988,1.368 -2.448,5.075 0.668,1.611 1.383,3.203 2.147,4.965 2.975,-4.159 6.717,-5.493 11.425,-4.022 C -2.764,-8.646 -1.072,-4.776 0,0"
             style="fill:#197474;fill-opacity:1;fill-rule:evenodd;stroke:none"
             id="path228" />
        </g>
        <g
           id="g230"
           transform="translate(255.667,435.3911)">
          <path
             d="m 0,0 c 0.025,-4.195 -1.381,-7.928 -3.668,-11.364 -1.023,-1.536 -2.394,-2.704 -4.125,-3.398 -2.052,-0.821 -3.375,-0.123 -4.048,1.942 -0.749,2.299 -0.432,4.602 0.282,6.73 1.25,3.714 3.157,7.126 5.999,9.923 0.17,0.167 0.332,0.343 0.511,0.499 0.916,0.797 1.929,1.605 3.187,1.16 C -0.591,5.043 -0.324,3.761 -0.161,2.563 -0.046,1.717 -0.049,0.854 0,0"
             style="fill:#fefefe;fill-opacity:1;fill-rule:evenodd;stroke:none"
             id="path232" />
        </g>
        <g
           id="g234"
           transform="translate(264.4297,432.6763)">
          <path
             d="m 0,0 c 1.501,-4.38 2.505,-8.877 2.765,-13.497 0.33,-5.845 0.338,-11.692 -0.778,-17.483 -0.147,-0.762 -0.44,-1.298 -1.227,-1.549 -0.676,-0.216 -1.315,-0.543 -1.975,-0.811 -0.123,-0.05 -0.265,-0.049 -0.599,-0.105 1.228,2.584 1.933,5.203 2.403,7.88 1.073,6.098 0.79,12.216 0.182,18.337 -0.223,2.226 -0.627,4.416 -1.082,6.602 C -0.372,-0.335 -0.549,0.013 0,0"
             style="fill:#fcfcfc;fill-opacity:1;fill-rule:evenodd;stroke:none"
             id="path236" />
        </g>
        <g
           id="g238"
           transform="translate(264.4297,432.6763)">
          <path
             d="M 0,0 C -0.281,-0.12 -0.208,-0.417 -0.311,-0.626 -0.701,0.566 -1.092,1.759 -1.482,2.951 -0.664,2.097 -0.213,1.101 0,0"
             style="fill:#c5c2c1;fill-opacity:1;fill-rule:evenodd;stroke:none"
             id="path240" />
        </g>
      </g>
    </g>
  </g>
</svg>
