<?xml version="1.0" encoding="UTF-8" standalone="no"?>
<!-- Created with Inkscape (http://www.inkscape.org/) -->

<svg
   version="1.1"
   id="svg2"
   width="718.10669"
   height="793.70667"
   viewBox="0 0 718.10669 793.70667"
   sodipodi:docname="squirtle-pokemon-seeklogo.com.ai"
   xmlns:inkscape="http://www.inkscape.org/namespaces/inkscape"
   xmlns:sodipodi="http://sodipodi.sourceforge.net/DTD/sodipodi-0.dtd"
   xmlns="http://www.w3.org/2000/svg"
   xmlns:svg="http://www.w3.org/2000/svg">
  <defs
     id="defs6">
    <clipPath
       clipPathUnits="userSpaceOnUse"
       id="clipPath16">
      <path
         d="M 0,595.28 H 538.58 V 0 H 0 Z"
         id="path14" />
    </clipPath>
  </defs>
  <sodipodi:namedview
     id="namedview4"
     pagecolor="#ffffff"
     bordercolor="#000000"
     borderopacity="0.25"
     inkscape:showpageshadow="2"
     inkscape:pageopacity="0.0"
     inkscape:pagecheckerboard="0"
     inkscape:deskcolor="#d1d1d1" />
  <g
     id="g8"
     inkscape:groupmode="layer"
     inkscape:label="squirtle-pokemon-seeklogo.com"
     transform="matrix(1.3333333,0,0,-1.3333333,0,793.70667)">
    <g
       id="g10">
      <g
         id="g12"
         clip-path="url(#clipPath16)">
        <g
           id="g18"
           transform="translate(175.6675,330.5586)">
          <path
             d="m 0,0 c -1.094,1.016 -1.968,1.833 -2.849,2.645 -1.737,1.602 -3.344,3.316 -4.493,5.401 -0.321,0.582 -0.777,0.842 -1.388,1.03 -4.218,1.299 -6.632,5.019 -5.831,9.032 0.28,1.399 0.906,2.697 1.527,3.976 0.275,0.566 0.368,1.12 0.371,1.739 0.015,4.277 -0.351,8.556 0.045,12.829 0.591,6.379 0.942,12.811 3.293,18.874 2.517,6.488 6.425,12.108 10.945,17.354 9.596,11.137 21.784,17.767 36.106,20.403 13.16,2.422 26.293,1.85 39.117,-2.093 11.664,-3.586 21.606,-10.002 29.54,-19.358 5.856,-6.904 9.35,-14.894 10.867,-23.801 0.584,-3.417 0.95,-6.843 1.049,-10.302 0.016,-0.548 0.122,-0.913 0.662,-1.183 2.743,-1.374 4.651,-3.6 6.174,-6.195 0.28,-0.474 0.592,-0.824 1.137,-1.045 13.044,-5.273 23.42,-13.926 31.8,-25.116 2.397,-3.2 4.399,-6.633 6.444,-10.061 1.509,-2.528 3.192,-4.954 4.392,-7.655 4.357,-9.816 7.569,-19.948 8.497,-30.72 0.512,-5.936 0.929,-11.867 0.589,-17.828 -0.328,-5.758 -0.252,-11.539 -1.228,-17.256 -1.024,-5.992 -2.857,-11.734 -5.131,-17.543 0.719,0.307 1.215,0.715 1.678,1.164 1.832,1.773 3.342,3.779 4.492,6.068 1.487,2.957 2.932,5.944 4.588,8.805 6.272,10.838 15.122,18.725 26.983,22.984 4.621,1.659 9.495,1.307 14.3,1.215 2.612,-0.049 5.178,-0.519 7.639,-1.408 8.415,-3.035 14.85,-8.375 19.146,-16.295 6.043,-11.137 7.736,-22.939 4.242,-35.033 -3.051,-10.563 -10.158,-17.994 -20.739,-21.49 -4.772,-1.576 -9.83,-1.532 -14.793,-0.389 -0.399,0.092 -0.732,0.113 -1.124,-0.045 -5.041,-2.027 -10.369,-2.764 -15.709,-3.408 -6.817,-0.826 -13.659,-0.822 -20.502,-0.416 -5.908,0.351 -11.772,1.107 -17.624,1.98 -1.619,0.245 -3.257,0.354 -4.881,0.573 -0.629,0.086 -0.886,-0.098 -0.973,-0.733 -0.625,-4.59 -1.647,-9.105 -2.609,-13.631 -0.413,-1.939 -0.068,-3.836 0.088,-5.744 0.277,-3.373 0.642,-6.74 0.932,-10.111 0.153,-1.779 0.039,-1.828 -1.7,-1.572 -3.067,0.449 -6.125,0.918 -9.156,1.572 -2.847,0.615 -5.513,0.092 -7.996,-1.426 -2.28,-1.392 -4.598,-2.723 -6.842,-4.168 -0.978,-0.629 -1.721,-0.486 -2.617,0.125 -2.458,1.678 -4.557,3.772 -6.791,5.705 -0.489,0.424 -0.963,0.635 -1.618,0.641 -3.136,0.029 -6.273,0.107 -9.41,0.168 -1.219,0.025 -1.334,0.197 -1.035,1.402 0.508,2.041 1.617,3.795 2.716,5.537 0.624,0.987 0.737,1.844 0.368,2.971 -2.156,6.594 -3.578,13.338 -3.839,20.293 -0.02,0.539 -0.093,0.824 -0.747,0.846 -8.415,0.273 -16.576,2.166 -24.746,3.964 -0.753,0.166 -1.049,0.028 -1.384,-0.623 -1.47,-2.853 -2.739,-5.787 -3.805,-8.812 -0.305,-0.867 -0.375,-1.729 -0.204,-2.625 0.486,-2.553 0.94,-5.111 1.446,-7.66 0.603,-3.033 0.406,-4.649 -3.77,-5.772 -3.953,-1.062 -8.03,-1.599 -12.089,-2.129 -10.187,-1.326 -20.408,-2.214 -30.698,-2.007 -1.38,0.029 -1.583,0.339 -0.953,1.568 0.508,0.986 1.339,1.73 2.079,2.648 -2.31,0.463 -4.575,0.668 -6.742,1.344 -1.169,0.363 -1.254,0.57 -0.64,1.639 1.479,2.576 3.254,4.939 5.298,7.09 0.446,0.47 0.451,0.685 0.038,1.181 -2.978,3.58 -5.669,7.354 -6.868,11.942 -1.448,5.547 -1.35,11.076 0.589,16.509 2.266,6.352 5.111,12.44 8.58,18.225 0.371,0.619 0.276,0.94 -0.137,1.447 -4.573,5.621 -8.928,11.399 -11.817,18.108 -2.538,5.894 -4.392,12.023 -6.024,18.222 -0.372,1.411 -0.367,3.125 -1.207,4.149 -0.814,0.99 -2.632,0.664 -3.987,1.029 -7.795,2.096 -14.862,5.615 -21.399,10.363 -7.166,5.203 -13.767,10.962 -19.309,17.893 -0.24,0.3 -0.558,0.548 -0.874,0.772 -1.661,1.173 -3.253,2.433 -4.809,3.741 -1.873,1.574 -1.894,1.798 -0.395,3.688 1.772,2.235 3.569,4.451 5.519,6.533 0.464,0.495 0.592,0.817 0.101,1.398 -1.769,2.09 -2.924,4.539 -3.944,7.055 -0.648,1.6 -0.378,2.097 1.342,2.181 3.812,0.186 7.632,0.203 11.441,-0.002 C -15.965,2.082 -10.663,1.768 -5.412,0.919 -3.705,0.644 -2.002,0.341 0,0"
             style="fill:#211814;fill-opacity:1;fill-rule:evenodd;stroke:none"
             id="path20" />
        </g>
        <g
           id="g22"
           transform="translate(185.252,324.3989)">
          <path
             d="m 0,0 c -4.423,2.775 -8.467,6.028 -12.225,9.647 -1.493,1.439 -2.932,2.916 -3.957,4.825 0.425,0.128 0.758,-0.099 1.085,-0.216 8.062,-2.875 15.99,-6.073 23.234,-10.695 2.426,-1.548 4.73,-1.552 7.302,-0.663 4.245,1.467 8.581,2.64 13.034,3.267 5.082,0.716 10.205,1.042 15.327,1.367 5.725,0.363 11.466,0.5 17.179,1.057 1.248,0.121 2.462,0.404 3.58,0.994 0.883,0.466 1.409,1.191 1.644,2.281 C 65.938,11.782 65.793,11.782 65.75,11.716 64.422,9.712 62.302,9.429 60.199,9.268 56.326,8.972 52.443,8.809 48.567,8.561 40.925,8.072 33.258,7.832 25.702,6.441 22.302,5.815 18.986,4.849 15.694,3.801 15.118,3.618 14.539,3.442 13.963,3.256 12.23,2.698 10.666,2.936 9.084,3.917 1.052,8.9 -7.602,12.533 -16.542,15.523 c -0.841,0.281 -1.718,0.466 -2.545,0.783 -3.516,1.347 -5.486,5.418 -3.947,8.837 1.29,2.867 1.603,5.745 1.481,8.809 -0.297,7.472 0.371,14.885 1.804,22.218 1.213,6.209 4.259,11.603 7.848,16.702 5.558,7.897 12.419,14.434 20.929,19.055 7.81,4.24 16.187,6.807 25.068,7.628 10.558,0.976 21.033,0.524 31.258,-2.409 12.545,-3.601 23.191,-10.273 31.52,-20.438 5.509,-6.723 8.687,-14.477 10.114,-23.006 1.67,-9.971 1.383,-19.868 -1.019,-29.695 -0.076,-0.311 -0.176,-0.616 -0.25,-0.927 -0.622,-2.595 -1.687,-4.647 -4.678,-5.324 -1.728,-0.392 -3.317,-1.443 -4.934,-2.267 -0.652,-0.332 -1.021,-0.311 -1.505,0.3 -1.955,2.461 -4.139,4.714 -6.444,6.848 -0.841,0.778 -1.785,1.415 -2.709,2.085 -0.641,0.465 -1.037,0.323 -1.499,-0.275 C 82.142,22.103 80.828,19.453 79.947,16.694 78.953,13.585 77.204,11.428 74.348,9.908 72.34,8.84 70.613,7.292 68.996,5.673 68.018,4.694 67.982,4.266 68.789,3.182 69.532,2.184 70.316,1.214 71.082,0.232 71.07,-0.458 70.482,-0.609 70.025,-0.829 64.92,-3.281 59.618,-5.095 53.974,-5.847 49.771,-6.408 45.562,-6.769 41.322,-6.962 28.875,-7.529 16.74,-5.884 4.865,-2.171 3.156,-1.637 1.561,-0.86 0,0"
             style="fill:#a2d6d4;fill-opacity:1;fill-rule:evenodd;stroke:none"
             id="path24" />
        </g>
        <g
           id="g26"
           transform="translate(412.1113,232.6621)">
          <path
             d="m 0,0 c -2.084,3.455 -5.053,5.803 -8.977,6.725 -2.967,0.697 -6.007,0.634 -9.018,0.062 -2.849,-0.404 -5.743,-0.226 -8.585,-0.816 -6.383,-1.323 -12.02,-4.082 -17.002,-8.284 -2.732,-2.3 -5.121,-4.933 -7.632,-7.449 -5.453,-5.468 -11.858,-9.404 -19.186,-11.826 -1.894,-0.625 -3.819,-1.15 -5.802,-1.432 -0.503,-0.07 -0.891,-0.021 -1.128,0.471 -0.342,1.205 -0.017,2.471 -0.336,3.68 -0.104,0.39 0.244,0.459 0.48,0.586 4.281,2.279 6.79,5.752 7.176,10.652 0.028,0.338 0.167,0.588 0.364,0.858 1.404,1.929 2.783,3.878 3.911,5.988 0.172,0.324 0.385,0.582 0.715,0.76 2.975,1.595 4.996,4.129 6.53,7.019 2.033,3.836 3.792,7.834 6.122,11.496 5.958,9.364 13.982,16.352 24.374,20.471 2.92,1.158 5.997,1.434 9.109,1.576 5.793,0.266 11.451,-0.107 16.787,-2.711 6.701,-3.271 11.906,-8.045 15.474,-14.652 5.854,-10.838 7.196,-22.219 4.355,-34.135 -0.596,-2.498 -1.696,-4.82 -3.038,-7.018 -0.609,0.073 -0.618,0.614 -0.751,1.018 -1.069,3.272 -2.532,6.344 -4.67,9.055 C 7.23,-5.316 4.795,-3.148 1.971,-1.43 1.274,-1.006 0.531,-0.648 0,0"
             style="fill:#a2d6d4;fill-opacity:1;fill-rule:evenodd;stroke:none"
             id="path28" />
        </g>
        <g
           id="g30"
           transform="translate(269.1289,298.5205)">
          <path
             d="m 0,0 c -1.992,3.049 -3.641,6.277 -4.885,9.696 -1.558,4.278 -3.123,8.556 -4.31,12.958 -0.153,0.563 -0.555,0.877 -0.883,1.285 -1.473,1.834 -2.905,3.7 -4.392,5.522 -0.525,0.645 -0.407,1.076 0.156,1.619 2.427,2.342 5.189,4.232 8.058,5.966 0.912,0.552 1.43,1.26 1.801,2.246 1.291,3.429 2.619,6.846 4.654,9.936 0.501,0.761 0.863,0.882 1.631,0.299 3.211,-2.428 5.881,-5.388 8.422,-8.469 0.669,-0.812 1.179,-0.974 2.137,-0.453 2.25,1.224 4.584,2.286 6.99,3.183 0.713,0.266 1.08,0.218 1.43,-0.579 1.379,-3.148 2.351,-6.409 2.959,-9.785 0.025,-0.14 0.015,-0.298 0.078,-0.418 0.146,-0.28 -0.006,-0.878 0.5,-0.774 0.458,0.095 0.224,0.587 0.197,0.923 -0.018,0.208 -0.045,0.416 -0.07,0.635 0.437,-10e-4 0.676,-0.3 0.961,-0.496 6.341,-4.374 11.029,-10.113 14.295,-17.085 2.21,-4.721 3.599,-9.587 3.306,-14.845 -0.053,-0.959 -0.172,-1.914 -0.26,-2.871 -0.18,-0.382 -0.529,-0.448 -0.894,-0.465 -1.645,-0.076 -2.79,-0.966 -3.686,-2.256 -2.502,-3.605 -5.971,-5.744 -10.281,-6.224 -3.547,-0.395 -7.125,-0.145 -10.611,0.775 C 11.68,-8.194 6.593,-5.619 1.979,-2.089 1.203,-1.495 0.643,-0.712 0,0"
             style="fill:#a2d6d4;fill-opacity:1;fill-rule:evenodd;stroke:none"
             id="path32" />
        </g>
        <g
           id="g34"
           transform="translate(256.1367,252.75)">
          <path
             d="m 0,0 c -5.42,-0.076 -10.834,0.133 -16.25,0.252 -0.695,0.016 -1.064,0.199 -1.334,0.893 -4.42,11.398 -7.333,23.187 -9.139,35.261 -0.169,1.125 -0.173,2.278 -0.368,3.397 -0.132,0.758 0.087,0.901 0.798,0.876 3.99,-0.143 7.982,-0.087 11.975,-0.015 7.773,0.141 15.518,0.568 23.125,2.35 1.107,0.259 2.224,0.509 3.298,0.877 0.737,0.252 1.12,0.092 1.569,-0.538 3.307,-4.652 7.396,-8.457 12.372,-11.294 2.093,-1.192 4.309,-2.039 6.657,-2.52 0.715,-0.148 0.811,-0.287 0.419,-0.916 C 30.733,24.783 28.293,20.979 26.023,17.064 23.059,11.949 20.367,6.689 17.787,1.373 17.465,0.711 17.109,0.443 16.352,0.428 10.9,0.316 5.45,0.15 0,0"
             style="fill:#f4e97d;fill-opacity:1;fill-rule:evenodd;stroke:none"
             id="path36" />
        </g>
        <g
           id="g38"
           transform="translate(161.5044,293.5977)">
          <path
             d="m 0,0 c -2.753,1.863 -5.208,4.084 -7.586,6.391 -2.227,2.16 -4.367,4.418 -6.275,6.857 -1.378,1.762 -3.261,2.845 -4.91,4.24 -0.816,0.69 -1.631,1.384 -2.478,2.036 -0.65,0.501 -0.673,0.957 -0.165,1.604 1.961,2.494 3.942,4.972 6.133,7.268 0.692,0.726 0.698,1.247 0.06,1.991 -1.781,2.081 -2.926,4.534 -3.984,7.035 -0.331,0.783 -0.279,1.091 0.711,1.15 5.851,0.35 11.679,0.01 17.512,-0.388 5.125,-0.35 10.194,-1.065 15.236,-2.018 0.75,-0.143 1.383,-0.407 1.99,-0.895 7.485,-6.013 15.58,-10.883 25.015,-13.198 0.508,-0.125 0.695,-0.325 0.695,-0.857 10e-4,-8.399 -1.388,-16.509 -4.961,-24.171 -0.375,-0.361 -0.841,-0.502 -1.338,-0.609 -2.687,-0.582 -5.42,-0.864 -8.151,-0.983 -4.77,-0.211 -9.526,0.068 -14.264,0.733 -3.218,0.451 -6.378,1.113 -9.481,2.068 C 2.423,-1.336 1.166,-0.771 0,0"
             style="fill:#a2d6d4;fill-opacity:1;fill-rule:evenodd;stroke:none"
             id="path40" />
        </g>
        <g
           id="g42"
           transform="translate(309.1816,268.7969)">
          <path
             d="m 0,0 c -0.094,3.303 0.59,6.516 1.139,9.742 0.847,4.988 1.648,9.973 1.675,15.061 0.009,1.796 0.747,3.527 0.889,5.352 0.391,5.022 -0.605,9.77 -2.559,14.363 -3.48,8.181 -8.776,14.868 -16.255,19.753 -0.523,0.341 -0.78,0.781 -0.917,1.361 -0.64,2.707 -1.472,5.351 -2.677,7.865 -0.266,0.555 -0.298,1.044 -0.045,1.623 2.094,4.798 2.762,9.916 3.32,15.055 0.268,2.471 0.273,4.954 0.274,7.571 1.787,-0.909 3.201,-2.031 4.393,-3.484 3.17,-3.864 4.524,-8.337 4.547,-13.265 0.015,-3.1 -0.163,-6.203 0.195,-9.294 0.399,-3.439 1.623,-6.438 4.388,-8.719 4.022,-3.318 7.794,-6.892 10.904,-11.116 4.022,-5.463 7.061,-11.377 8.133,-18.139 0.61,-3.846 0.636,-7.738 0.33,-11.624 C 17.379,17.596 17.221,13.066 16.449,8.6 15.826,4.99 14.793,1.463 14.232,-2.166 c -0.599,-3.883 0.199,-7.42 2.315,-10.699 1.672,-2.594 3.922,-4.703 5.873,-7.063 3.36,-4.062 6.115,-8.496 8.25,-13.304 1.904,-4.289 2.141,-8.758 0.966,-13.272 -0.906,-3.476 -3.339,-5.685 -6.513,-7.391 -0.19,0.987 -0.361,1.874 -0.533,2.76 2.244,4.822 1.552,9.586 -0.404,14.266 -1.6,3.826 -4.03,7.094 -7,9.998 -2.524,2.463 -5.129,4.838 -7.642,7.309 -1.914,1.882 -3.399,4.109 -4.817,6.38 C 2.83,-10.145 1.148,-7.025 0.391,-3.477 0.145,-2.324 0.184,-1.152 0,0"
             style="fill:#deedea;fill-opacity:1;fill-rule:evenodd;stroke:none"
             id="path44" />
        </g>
        <g
           id="g46"
           transform="translate(285.7988,212.7461)">
          <path
             d="m 0,0 c 0.984,7.037 3.316,13.494 8.443,18.621 3.541,3.541 7.987,5.316 12.942,5.621 6.535,0.401 12.658,-0.84 17.69,-5.385 3.126,-2.822 5.068,-6.48 6.743,-10.281 2.346,-5.326 2.602,-10.969 2.448,-16.658 -0.033,-1.162 0.06,-2.348 -0.274,-3.49 -0.797,-1.205 -2.032,-1.871 -3.236,-2.541 -4.643,-2.582 -9.664,-3.944 -14.914,-4.569 -2.867,-0.341 -5.738,-0.509 -8.625,-0.443 -4.218,0.098 -8.231,0.85 -11.534,3.729 C 5.629,-11.863 2.398,-7.707 0.307,-2.717 -0.059,-1.846 -0.152,-0.936 0,0"
             style="fill:#a2d6d4;fill-opacity:1;fill-rule:evenodd;stroke:none"
             id="path48" />
        </g>
        <g
           id="g50"
           transform="translate(330.375,251.4863)">
          <path
             d="m 0,0 c -1.074,1.139 -2.114,2.303 -3.082,3.539 -3.059,3.904 -3.906,8.217 -2.898,13.068 0.844,4.069 2.06,8.069 2.41,12.235 0.23,2.765 0.526,5.525 0.718,8.293 0.263,3.767 0.379,7.531 0.106,11.314 -0.307,4.255 -1.459,8.25 -3.189,12.11 -2.221,4.958 -5.314,9.337 -8.92,13.372 -0.163,0.181 -0.321,0.366 -0.58,0.664 2.101,0 4.08,0.138 6.034,-0.028 4.569,-0.386 9.137,-0.833 13.659,-1.644 1.433,-0.257 2.844,-0.643 4.279,-0.888 1.256,-0.213 1.969,-1.002 2.553,-2.031 2.791,-4.917 4.768,-10.174 6.613,-15.498 2.346,-6.763 3.75,-13.707 4.342,-20.832 0.092,-1.102 0.207,-2.195 0.182,-3.303 0.033,-2.15 -0.772,-4.094 -1.579,-6.014 C 18.215,18.572 14.897,13.35 10.689,8.674 7.914,5.59 4.975,2.727 1.451,0.51 1.013,0.232 0.604,-0.176 0,0"
             style="fill:#c56713;fill-opacity:1;fill-rule:evenodd;stroke:none"
             id="path52" />
        </g>
        <g
           id="g54"
           transform="translate(334.7812,210.1133)">
          <path
             d="m 0,0 c 0.531,-0.512 1.166,-0.217 1.697,-0.107 7.584,1.576 14.433,4.728 20.412,9.689 2.412,2.002 4.603,4.231 6.776,6.496 5.033,5.25 10.74,9.537 17.828,11.705 4.121,1.262 8.318,1.822 12.623,1.553 C 49.312,26.369 44.859,16.93 45.754,7.537 c 0.203,-2.135 0.45,-4.25 1.209,-6.264 1.965,-5.211 5.363,-9.093 10.575,-11.263 0.191,-0.08 0.37,-0.188 0.621,-0.317 -3.192,-1.328 -6.475,-1.91 -9.766,-2.478 -5.629,-0.975 -11.307,-1.385 -17.008,-1.399 -5.377,-0.011 -10.74,0.344 -16.094,0.897 -4.885,0.504 -9.707,1.5 -14.609,1.826 -0.934,0.061 -1.192,0.424 -1.04,1.334 C 0.197,-6.77 0.105,-3.383 0,0"
             style="fill:#51a4ae;fill-opacity:1;fill-rule:evenodd;stroke:none"
             id="path56" />
        </g>
        <g
           id="g58"
           transform="translate(310.0469,281.8105)">
          <path
             d="m 0,0 c -0.473,-3.055 -1.035,-6.098 -1.397,-9.164 -0.607,-5.123 -0.467,-10.221 1.002,-15.219 0.514,-1.746 1.227,-3.408 2.188,-4.957 1.955,-3.144 4.066,-6.176 6.512,-8.963 0.486,-1.013 -0.133,-1.828 -0.614,-2.558 -0.863,-1.311 -2.026,-2.375 -3.315,-3.284 -0.164,-0.115 -0.362,-0.236 -0.593,-0.136 -2.734,0.213 -5.469,0.47 -8.209,0.074 -3.547,-0.514 -6.793,-1.797 -9.744,-3.816 -0.372,-0.254 -0.545,-0.153 -0.803,0.082 -6.788,6.144 -13.978,11.845 -20.365,18.435 -0.354,0.365 -0.539,0.649 -0.276,1.195 4.44,9.26 9.435,18.206 15.072,26.793 0.036,0.055 0.106,0.09 0.161,0.133 0.365,0.076 0.709,-0.011 1.033,-0.168 2.52,-1.211 5.237,-1.644 7.972,-1.654 3.575,-0.016 6.956,0.912 9.983,2.91 0.325,0.213 0.611,0.5 1.01,0.572 C -0.186,0.311 0.069,0.361 0,0"
             style="fill:#f4e97d;fill-opacity:1;fill-rule:evenodd;stroke:none"
             id="path60" />
        </g>
        <g
           id="g62"
           transform="translate(198.3076,288.3105)">
          <path
             d="m 0,0 c 1.52,3.297 2.923,6.64 3.852,10.159 0.139,0.527 0.342,0.484 0.746,0.321 7.844,-3.164 16.113,-4.332 24.448,-5.176 0.559,-0.057 0.875,-0.118 0.947,-0.811 1.383,-13.237 4.611,-26.032 9.299,-38.473 0.111,-0.299 0.221,-0.6 0.318,-0.905 0.018,-0.058 -0.023,-0.136 -0.057,-0.312 -2.577,0.123 -5.17,0.236 -7.763,0.373 -5.479,0.285 -10.923,0.931 -16.362,1.627 -0.363,0.045 -0.66,0.086 -0.909,0.424 -5.418,7.328 -10.957,14.57 -15.557,22.464 -0.231,0.444 -0.174,0.911 -0.044,1.35 0.652,2.209 0.532,4.504 0.763,6.758 C -0.243,-1.459 -0.208,-0.719 0,0"
             style="fill:#f4e97d;fill-opacity:1;fill-rule:evenodd;stroke:none"
             id="path64" />
        </g>
        <g
           id="g66"
           transform="translate(235.1465,215.9043)">
          <path
             d="m 0,0 c 5.496,-3.904 11.184,-7.486 17.441,-10.068 1.28,-0.528 2.614,-0.934 3.943,-1.327 0.657,-0.193 0.765,-0.418 0.435,-1.029 -1.458,-2.699 -2.585,-5.541 -3.702,-8.394 -0.718,-1.832 -0.371,-3.569 -0.055,-5.346 0.405,-2.273 0.852,-4.543 1.31,-6.809 0.275,-1.363 -0.188,-2.34 -1.368,-3.062 -1.666,-1.018 -3.568,-1.192 -5.408,-1.529 -6.688,-1.233 -13.426,-2.094 -20.204,-2.631 -0.527,-0.043 -1.032,-0.311 -1.578,-0.157 0.003,0.317 0.334,0.573 -0.002,0.959 -3.452,3.985 -7.432,7.248 -12.411,9.145 -1.672,0.639 -3.405,1.019 -5.219,0.934 -0.412,-0.02 -0.865,-0.092 -1.207,0.265 0.356,0.584 0.818,1.113 1.37,1.473 0.67,0.435 0.98,-0.684 1.827,-0.553 -0.743,0.817 -1.441,1.525 -2.072,2.289 -2.614,3.166 -5.03,6.457 -6.361,10.408 -0.055,0.164 -0.075,0.342 -0.112,0.514 0.446,0.102 0.734,-0.203 1.049,-0.42 3.945,-2.738 8.31,-3.939 13.048,-3.123 3.418,0.59 6.457,2.195 9.14,4.426 4.442,3.693 7.829,8.148 9.845,13.596 C -0.229,-0.27 -0.143,-0.115 0,0"
             style="fill:#51a4ae;fill-opacity:1;fill-rule:evenodd;stroke:none"
             id="path68" />
        </g>
        <g
           id="g70"
           transform="translate(254.6328,224.0937)">
          <path
             d="m 0,0 c -4.8,6.617 -8.999,13.592 -12.4,21.031 -1.063,2.323 -2.019,4.692 -3.002,6.987 2.16,0 4.214,0.027 6.267,-0.004 8.914,-0.135 17.823,-0.037 26.729,0.373 0.851,0.039 1.457,-0.153 2.061,-0.782 6.159,-6.412 13.114,-11.951 19.73,-17.863 0.738,-0.66 0.757,-0.971 0.01,-1.625 -1.48,-1.291 -2.571,-2.935 -3.743,-4.5 -2.325,-1.574 -5.028,-2.123 -7.679,-2.777 -4.162,-1.027 -8.409,-1.395 -12.69,-1.393 -2.952,0 -5.905,0.035 -8.857,-0.013 -1.819,-0.03 -3.613,0.324 -5.43,0.242 C 0.633,-0.34 0.295,-0.223 0,0"
             style="fill:#f4e97d;fill-opacity:1;fill-rule:evenodd;stroke:none"
             id="path72" />
        </g>
        <g
           id="g74"
           transform="translate(412.1113,232.6621)">
          <path
             d="m 0,0 c 7.041,-3.662 11.794,-9.25 14.176,-16.836 0.125,-0.396 0.159,-0.848 0.517,-1.143 -3.808,-6.212 -8.875,-10.984 -15.691,-13.773 -2.034,-0.834 -4.167,-1.182 -6.334,-1.363 -3.019,-0.252 -6.015,-0.285 -9.025,0.318 -6.954,1.393 -12.911,7.477 -14.061,14.539 -0.395,2.426 -0.684,4.86 -0.414,7.322 1.867,2.657 4.307,4.625 7.258,5.944 3.32,1.484 6.84,1.562 10.381,1.308 1.094,-0.078 2.193,-0.193 3.262,-0.517 3.561,-1.078 6.056,-3.328 7.519,-6.738 -0.056,-0.274 -0.484,-0.34 -0.359,-0.836 1.372,0.677 2.341,1.673 2.954,3.023 1.126,2.481 1.129,5.006 0.243,7.555 C 0.287,-0.797 0.142,-0.398 0,0"
             style="fill:#51a4ae;fill-opacity:1;fill-rule:evenodd;stroke:none"
             id="path76" />
        </g>
        <g
           id="g78"
           transform="translate(285.7988,212.7461)">
          <path
             d="m 0,0 c -0.039,-1.02 0.258,-1.955 0.676,-2.873 2.482,-5.443 5.954,-10.096 10.925,-13.514 2.159,-1.484 4.612,-2.095 7.226,-2.265 1.884,-0.123 3.767,-0.239 5.649,-0.16 6.871,0.283 13.545,1.417 19.712,4.695 1.359,0.722 2.548,1.679 3.804,2.545 -0.392,-4.188 -1.25,-8.297 -2.062,-12.414 -0.617,-3.133 -1.552,-6.219 -1.152,-9.491 0.398,-3.25 0.679,-6.513 0.995,-9.773 0.048,-0.492 0.015,-0.994 0.02,-1.492 -0.609,-0.063 -0.982,0.363 -1.387,0.695 -3.172,2.596 -6.732,4.516 -10.482,6.127 -2.826,1.215 -5.807,1.752 -8.839,1.85 -5.986,0.191 -11.964,0.088 -17.861,-1.2 -1.334,-0.291 -2.601,-0.728 -3.837,-1.293 -0.399,-0.179 -0.807,-0.521 -1.272,-0.121 0.088,0.194 0.137,0.422 0.272,0.575 1.453,1.646 1.228,3.371 0.59,5.336 C 0.4,-24.861 -0.909,-16.738 -0.537,-8.395 -0.412,-5.596 -0.415,-2.783 0,0"
             style="fill:#51a4ae;fill-opacity:1;fill-rule:evenodd;stroke:none"
             id="path80" />
        </g>
        <g
           id="g82"
           transform="translate(235.1465,215.9043)">
          <path
             d="m 0,0 c -0.121,-1.461 -0.82,-2.717 -1.502,-3.955 -2.521,-4.582 -5.764,-8.566 -10.111,-11.527 -3.451,-2.35 -7.243,-3.918 -11.511,-3.471 -3.75,0.392 -7.303,1.498 -10.249,4.035 -1.16,3.24 -1.385,6.59 -1.188,9.996 0.217,3.758 1.458,7.235 2.872,10.67 2.021,4.914 4.345,9.676 7.011,14.275 0.532,0.918 1.03,1.049 1.927,0.59 1.44,-0.738 2.771,-1.615 3.896,-2.779 2.23,-2.307 4.438,-4.633 6.67,-6.938 C -8.385,6.973 -4.357,3.303 0,0"
             style="fill:#a2d6d4;fill-opacity:1;fill-rule:evenodd;stroke:none"
             id="path84" />
        </g>
        <g
           id="g86"
           transform="translate(215.8931,235.2109)">
          <path
             d="m 0,0 c -1.543,1.086 -3.089,2.135 -4.979,2.59 -0.867,0.207 -1.613,1.793 -1.471,2.74 0.68,4.561 2.123,8.914 3.551,13.274 0.166,0.505 0.391,0.623 0.926,0.544 7.829,-1.146 15.712,-1.671 23.61,-1.996 0.543,-0.021 0.892,-0.091 1.122,-0.695 3.684,-9.703 8.769,-18.65 14.678,-27.148 -0.09,-0.588 -0.543,-0.436 -0.891,-0.403 -4.724,0.463 -9.39,1.276 -14.023,2.307 C 15.728,-7.275 9.275,-4.852 3.089,-1.68 2.045,-1.145 0.942,-0.721 0,0"
             style="fill:#f4e97e;fill-opacity:1;fill-rule:evenodd;stroke:none"
             id="path88" />
        </g>
        <g
           id="g90"
           transform="translate(261.0068,315.0083)">
          <path
             d="m 0,0 c 0.667,-1.877 1.351,-3.749 1.997,-5.633 1.414,-4.13 3.41,-7.976 5.742,-11.793 -2.555,-0.805 -5.091,-1.401 -7.668,-1.829 -10.958,-1.824 -22.007,-2.042 -33.049,-1.405 -8.042,0.464 -15.985,1.856 -23.611,4.632 -1.932,0.703 -1.909,0.751 -1.487,2.754 0.596,2.827 0.898,5.697 1.201,8.566 0.444,0.69 0.955,0.242 1.396,0.037 3.364,-1.571 6.848,-2.791 10.444,-3.714 5.521,-1.415 11.126,-1.987 16.817,-1.8 8.759,0.287 16.789,2.808 24.024,7.798 1.091,0.752 2.064,1.627 3.018,2.538 C -0.773,0.536 -0.283,0.881 0,0"
             style="fill:#f4e97e;fill-opacity:1;fill-rule:evenodd;stroke:none"
             id="path92" />
        </g>
        <g
           id="g94"
           transform="translate(339.332,324.3804)">
          <path
             d="m 0,0 c -2.975,0.487 -5.826,1.027 -8.717,1.391 -5.191,0.653 -10.385,1.245 -15.627,1.19 -0.689,-0.007 -1.201,0.175 -1.695,0.673 -1.632,1.644 -3.363,3.186 -5.172,4.633 -2.848,2.279 -4.003,5.374 -4.268,8.86 -0.183,2.445 -0.195,4.896 -0.135,7.358 0.086,3.549 -0.275,7.091 -1.911,10.635 C -20.582,27.664 -8.665,15.591 0,0"
             style="fill:#c56713;fill-opacity:1;fill-rule:evenodd;stroke:none"
             id="path96" />
        </g>
        <g
           id="g98"
           transform="translate(261.0068,315.0083)">
          <path
             d="m 0,0 c -0.288,0.417 -0.533,0.401 -0.913,0.041 -5.733,-5.439 -12.729,-8.347 -20.344,-9.819 -4.187,-0.81 -8.488,-0.959 -12.742,-0.666 -7.01,0.484 -13.798,2.012 -20.253,4.9 -0.814,0.364 -1.56,1.174 -2.623,0.836 0.012,1.424 0.047,2.849 0.025,4.272 -0.01,0.622 0.239,0.721 0.776,0.597 5.72,-1.322 11.544,-1.748 17.387,-1.761 11.292,-0.024 22.348,1.522 32.991,5.463 1.165,0.431 2.274,1.012 3.408,1.526 C -2.04,5.5 -1.782,5.74 -1.636,5.265 -1.095,3.508 -0.546,1.754 0,0"
             style="fill:#d0c45f;fill-opacity:1;fill-rule:evenodd;stroke:none"
             id="path100" />
        </g>
        <g
           id="g102"
           transform="translate(215.8931,235.2109)">
          <path
             d="m 0,0 c 2.405,-0.883 4.661,-2.098 6.962,-3.205 5.7,-2.74 11.718,-4.453 17.87,-5.781 3.352,-0.727 6.744,-1.233 10.144,-1.653 0.787,-0.097 1.637,-0.49 2.461,-0.052 1.658,-2.362 3.301,-4.731 4.986,-7.071 0.325,-0.451 0.292,-0.795 0.088,-1.261 -1.371,-3.129 -2.824,-6.227 -3.886,-9.479 -0.278,-0.85 -0.731,-0.551 -1.215,-0.365 -4.141,1.596 -7.937,3.853 -11.717,6.14 -7.879,4.77 -14.546,10.965 -20.784,17.668 C 3.309,-3.338 1.638,-1.684 0,0"
             style="fill:#d0c45f;fill-opacity:1;fill-rule:evenodd;stroke:none"
             id="path104" />
        </g>
        <g
           id="g106"
           transform="translate(287.9141,174.0625)">
          <path
             d="m 0,0 c 0.139,0.008 0.301,-0.027 0.414,0.033 3.845,2.026 8.076,2.281 12.275,2.727 3.52,0.373 7.047,0.25 10.563,0.14 6.57,-0.203 12.191,-3.033 17.462,-6.693 1.02,-0.709 1.977,-1.508 2.964,-2.266 0.366,-0.972 -0.031,-1.177 -0.952,-1.043 -2.994,0.438 -5.98,0.922 -8.943,1.534 -3.073,0.634 -5.929,0.084 -8.596,-1.553 -2.275,-1.397 -4.574,-2.758 -6.841,-4.168 -0.569,-0.354 -0.996,-0.313 -1.549,0.053 -2.483,1.638 -4.582,3.734 -6.799,5.687 -0.65,0.574 -1.294,0.875 -2.187,0.862 C 4.573,-4.736 1.334,-4.707 -2.008,-4.707 -1.676,-2.789 -0.94,-1.352 0,0"
             style="fill:#a2d6d4;fill-opacity:1;fill-rule:evenodd;stroke:none"
             id="path108" />
        </g>
        <g
           id="g110"
           transform="translate(330.375,251.4863)">
          <path
             d="m 0,0 c 2.436,1.225 4.557,2.904 6.526,4.748 5.345,5.002 9.688,10.766 12.867,17.383 1.267,2.637 2.222,5.379 2.834,8.24 0.373,-1.564 0.226,-3.17 0.384,-4.754 0.784,-7.775 -1.427,-14.988 -4.185,-22.103 -2.024,-5.219 -4.192,-10.36 -7.303,-15.045 -0.374,-0.565 -0.793,-1.098 -1.166,-1.66 -0.418,-0.627 -0.676,-0.543 -0.995,0.107 -1.198,2.43 -2.649,4.715 -4.136,6.977 C 3.396,-3.93 1.643,-2.008 0,0"
             style="fill:#aa4117;fill-opacity:1;fill-rule:evenodd;stroke:none"
             id="path112" />
        </g>
        <g
           id="g114"
           transform="translate(284.7539,209.4746)">
          <path
             d="m 0,0 c -0.252,-2.627 -0.244,-5.266 -0.229,-7.898 0.004,-0.891 -0.295,-1.041 -1.101,-1.008 -5.388,0.226 -10.671,1.199 -15.945,2.213 -3.875,0.746 -7.749,1.502 -11.532,2.662 -0.784,0.24 -0.97,0.498 -0.668,1.31 1.13,3.035 2.455,5.989 3.719,8.969 0.208,0.49 0.416,0.641 0.951,0.447 C -18.55,4.436 -12.059,3.207 -5.492,2.314 -4.047,2.117 -2.599,1.852 -1.147,1.82 -0.059,1.795 0.222,1.393 0.023,0.428 -0.004,0.289 0.008,0.143 0,0"
             style="fill:#d0c45f;fill-opacity:1;fill-rule:evenodd;stroke:none"
             id="path116" />
        </g>
        <g
           id="g118"
           transform="translate(254.6328,224.0937)">
          <path
             d="m 0,0 c 5.469,-0.303 10.945,-0.299 16.418,-0.207 6.418,0.107 12.691,1.059 18.618,3.701 0.187,0.084 0.41,0.084 0.616,0.123 -3.048,-4.58 -4.478,-9.728 -5.281,-15.09 -0.078,-0.523 -0.172,-0.754 -0.761,-0.687 -8.146,0.928 -16.231,2.152 -24.003,4.914 C 5.131,-7.078 4.725,-6.875 4.418,-6.42 2.965,-4.266 1.476,-2.139 0,0"
             style="fill:#d0c45f;fill-opacity:1;fill-rule:evenodd;stroke:none"
             id="path120" />
        </g>
        <g
           id="g122"
           transform="translate(409.6992,221.7227)">
          <path
             d="m 0,0 c -0.238,0.021 -0.36,0.16 -0.467,0.371 -2.015,4.004 -5.228,6.147 -9.732,6.525 -3.649,0.307 -7.225,0.278 -10.663,-1.132 -1.886,-0.774 -3.579,-1.873 -5.038,-3.313 -0.834,-0.822 -1.68,-1.631 -2.52,-2.447 0.58,9.971 7.389,16.146 14.248,17.17 5.395,0.803 10.43,-0.094 14.37,-4.404 C 3.32,9.355 3.811,3.199 0,0"
             style="fill:#a2d6d4;fill-opacity:1;fill-rule:evenodd;stroke:none"
             id="path124" />
        </g>
        <g
           id="g126"
           transform="translate(197.0146,276.916)">
          <path
             d="m 0,0 c 4.458,-7.439 9.654,-14.363 14.84,-21.293 0.508,-0.68 0.569,-1.221 0.301,-2.018 -1.395,-4.148 -2.743,-8.312 -3.414,-12.656 -0.015,-0.099 -0.084,-0.189 -0.132,-0.293 -0.35,0.031 -0.426,0.348 -0.592,0.547 -7.447,8.828 -11.673,19.211 -14.579,30.229 -0.162,0.615 -0.298,1.236 -0.445,1.855 0.377,0.514 1.063,0.531 1.51,0.947 0.651,0.608 1.241,1.245 1.641,2.059 C -0.712,-0.301 -0.618,0.258 0,0"
             style="fill:#f4e97d;fill-opacity:1;fill-rule:evenodd;stroke:none"
             id="path128" />
        </g>
        <g
           id="g130"
           transform="translate(185.252,324.3989)">
          <path
             d="m 0,0 c 2.494,-0.918 4.946,-1.942 7.511,-2.671 4.918,-1.397 9.905,-2.418 14.969,-3.105 3.52,-0.478 7.051,-0.697 10.594,-0.908 3.424,-0.203 6.824,-0.092 10.224,0.103 6.622,0.379 13.225,0.973 19.561,3.146 2.489,0.853 4.934,1.82 7.287,3.004 0.344,0.173 0.745,0.272 0.936,0.663 0.689,-0.858 1.346,-1.744 2.076,-2.565 0.495,-0.557 0.414,-0.781 -0.249,-1.112 C 68.674,-5.558 64.174,-6.867 59.575,-7.851 51.266,-9.628 42.869,-10.519 34.356,-10.212 24.993,-9.875 15.894,-8.364 7.367,-4.271 4.804,-3.041 2.285,-1.717 0,0"
             style="fill:#51a4ae;fill-opacity:1;fill-rule:evenodd;stroke:none"
             id="path132" />
        </g>
        <g
           id="g134"
           transform="translate(269.1289,298.5205)">
          <path
             d="m 0,0 c 3.066,-2.874 6.594,-5.044 10.365,-6.858 5.469,-2.633 11.223,-3.854 17.271,-3.366 2.848,0.231 5.428,1.35 7.645,3.223 1.122,0.948 2.065,2.028 2.904,3.241 0.882,1.277 2.129,2.085 3.772,2.069 0.291,-0.003 0.57,0.016 0.818,0.185 -0.537,-2.469 -1.158,-4.903 -2.42,-7.13 -1.518,-2.677 -3.938,-4.267 -6.646,-5.463 -6.775,-2.988 -13.477,-2.5 -19.933,0.879 C 8.039,-10.218 3.641,-5.689 0.115,-0.293 0.059,-0.207 0.037,-0.099 0,0"
             style="fill:#51a4ae;fill-opacity:1;fill-rule:evenodd;stroke:none"
             id="path136" />
        </g>
        <g
           id="g138"
           transform="translate(161.5044,293.5977)">
          <path
             d="m 0,0 c 2.698,-1.086 5.439,-2.02 8.291,-2.633 3.469,-0.748 6.982,-1.115 10.508,-1.441 1.74,-0.16 3.474,-0.17 5.214,-0.194 4.378,-0.062 8.705,0.366 12.98,1.313 -1.693,-4.193 -4.486,-7.641 -7.442,-10.977 -0.323,-0.365 -0.652,-0.297 -1.055,-0.224 -5.863,1.041 -11.377,3.086 -16.582,5.931 C 7.664,-5.902 3.746,-3.068 0,0"
             style="fill:#51a4ae;fill-opacity:1;fill-rule:evenodd;stroke:none"
             id="path140" />
        </g>
        <g
           id="g142"
           transform="translate(309.1816,268.7969)">
          <path
             d="m 0,0 c 0.225,-1.172 0.432,-2.348 0.68,-3.514 0.736,-3.465 2.408,-6.506 4.246,-9.482 1.384,-2.244 2.816,-4.483 4.706,-6.295 2.951,-2.832 5.985,-5.58 8.836,-8.516 1.311,-1.351 2.546,-2.777 3.543,-4.386 1.923,-3.102 3.475,-6.358 4.038,-10.006 0.4,-2.594 0.205,-5.151 -0.58,-7.66 -0.164,-0.522 -0.36,-1.006 -0.879,-1.276 -1.095,3.117 -2.211,6.235 -4.069,8.996 -1.134,1.686 -2.128,3.385 -2.585,5.41 -0.321,1.422 -1.204,2.645 -1.989,3.874 -1.591,2.494 -3.352,4.863 -5.338,7.058 -2.297,2.541 -4.283,5.313 -6.23,8.123 C 1.377,-13.34 0.125,-8.494 -0.03,-3.307 -0.063,-2.205 -0.013,-1.102 0,0"
             style="fill:#b1ccc7;fill-opacity:1;fill-rule:evenodd;stroke:none"
             id="path144" />
        </g>
        <g
           id="g146"
           transform="translate(207.1216,186.8555)">
          <path
             d="m 0,0 c 5.878,0.375 10.49,-2.406 14.797,-5.941 1.566,-1.286 2.943,-2.76 4.304,-4.258 0.582,-0.643 0.569,-0.91 -0.262,-1.104 -5.614,-0.5 -11.24,-0.666 -16.875,-0.619 -0.295,0.002 -0.707,-0.183 -0.871,0.166 -0.147,0.315 0.161,0.596 0.343,0.846 0.754,1.043 1.684,1.931 2.577,2.853 0.259,0.266 0.667,0.444 0.668,0.909 -0.069,0.035 -0.166,0.111 -0.185,0.093 -1.169,-0.994 -2.461,-0.517 -3.723,-0.304 -1.508,0.254 -3.019,0.494 -4.502,0.884 -0.603,0.161 -0.653,0.377 -0.354,0.877 C -2.895,-3.604 -1.538,-1.736 0,0"
             style="fill:#a2d6d4;fill-opacity:1;fill-rule:evenodd;stroke:none"
             id="path148" />
        </g>
        <g
           id="g150"
           transform="translate(342.3535,227.2207)">
          <path
             d="m 0,0 c -0.244,2.287 -0.127,4.646 -1.119,6.691 -1.024,2.108 -0.66,3.58 0.707,5.473 3.462,4.789 5.658,10.27 7.719,15.787 1.093,2.926 2.114,5.877 3.005,9.096 C 11.438,26.711 5.568,5.73 0,0"
             style="fill:#aa4117;fill-opacity:1;fill-rule:evenodd;stroke:none"
             id="path152" />
        </g>
        <g
           id="g154"
           transform="translate(310.0469,281.8105)">
          <path
             d="m 0,0 c -0.373,0.301 -0.578,-0.059 -0.812,-0.225 -2.735,-1.943 -5.783,-2.949 -9.126,-3.177 -3.669,-0.252 -7.156,0.339 -10.443,2.017 0.367,1.131 0.975,1.582 2.319,1.479 4.019,-0.309 7.924,0.142 11.63,2.019 3.22,1.631 5.877,3.719 7.416,7.405 C 1.162,7.668 0.937,6.141 0.754,4.621 0.566,3.072 0.256,1.539 0,0"
             style="fill:#d0c45f;fill-opacity:1;fill-rule:evenodd;stroke:none"
             id="path156" />
        </g>
        <g
           id="g158"
           transform="translate(313.8301,237.5293)">
          <path
             d="m 0,0 c 1.574,1.211 3.168,2.406 4.074,4.252 0.266,0.539 0.508,1.096 0.447,1.727 3.234,-3.676 6.318,-7.45 8.264,-12.055 -0.431,-0.119 -0.541,0.103 -0.682,0.234 -3.32,3.1 -7.218,5.006 -11.709,5.696 C 0.258,-0.125 0.131,-0.051 0,0"
             style="fill:#d0c45f;fill-opacity:1;fill-rule:evenodd;stroke:none"
             id="path160" />
        </g>
        <g
           id="g162"
           transform="translate(197.0146,276.916)">
          <path
             d="m 0,0 c -0.536,-0.078 -0.556,-0.586 -0.743,-0.932 -0.734,-1.345 -1.692,-2.396 -3.278,-2.697 -0.479,1.742 -0.952,3.486 -1.443,5.227 -0.114,0.404 0.054,0.675 0.303,0.955 0.592,0.662 1.197,1.314 1.746,2.013 0.427,0.543 0.619,0.332 0.881,-0.136 C -1.705,2.943 -0.847,1.475 0,0"
             style="fill:#d0c45f;fill-opacity:1;fill-rule:evenodd;stroke:none"
             id="path164" />
        </g>
        <g
           id="g166"
           transform="translate(198.3076,288.3105)">
          <path
             d="m 0,0 c 0.055,-3.477 -0.167,-6.924 -1.038,-10.309 -0.791,1.375 -1.569,2.758 -2.379,4.122 -0.236,0.396 -0.207,0.693 0.074,1.048 1.27,1.61 2.328,3.362 3.343,5.139"
             style="fill:#d0c45f;fill-opacity:1;fill-rule:evenodd;stroke:none"
             id="path168" />
        </g>
        <g
           id="g170"
           transform="translate(246.9609,349.7051)">
          <path
             d="m 0,0 c -3.283,-0.064 -6.553,0.147 -9.824,0.398 -1.106,0.085 -1.596,0.497 -1.782,1.618 -1.181,7.095 -1.65,14.223 -1.062,21.399 0.27,3.281 0.924,6.51 2.363,9.481 2.803,5.783 7.303,8.117 13.278,7.062 1.14,-0.2 2.145,-0.728 3.084,-1.405 C 10.311,35.479 12.615,31.187 13.57,26.16 15.116,18.027 14.988,9.936 12.539,1.954 12.271,1.08 11.916,0.623 10.889,0.516 7.266,0.14 3.635,0.053 0,0"
             style="fill:#231816;fill-opacity:1;fill-rule:evenodd;stroke:none"
             id="path172" />
        </g>
        <g
           id="g174"
           transform="translate(165.0137,361.4795)">
          <path
             d="m 0,0 c 0.055,5.629 0.216,11.256 1.456,16.777 0.677,3.014 1.753,5.842 4.096,8.054 2.856,2.695 6.781,2.061 8.508,-1.487 1.268,-2.605 1.634,-5.439 1.886,-8.279 0.457,-5.147 0.751,-10.303 0.459,-15.472 -0.141,-2.488 -0.467,-4.959 -0.881,-7.417 -0.1,-0.593 -0.293,-1.042 -1.066,-1.072 C 10.076,-9.071 5.703,-9.094 1.333,-8.633 0.358,-8.531 -0.036,-8.158 -0.015,-7.16 0.032,-4.774 0,-2.387 0,0"
             style="fill:#231816;fill-opacity:1;fill-rule:evenodd;stroke:none"
             id="path176" />
        </g>
        <g
           id="g178"
           transform="translate(231.4639,386.1392)">
          <path
             d="M 0,0 C 0.702,3.087 2.524,5.417 5.101,7.219 3.388,4.829 1.297,2.699 0,0"
             style="fill:#261e1b;fill-opacity:1;fill-rule:evenodd;stroke:none"
             id="path180" />
        </g>
        <g
           id="g182"
           transform="translate(186.4316,384.0254)">
          <path
             d="M 0,0 C -0.337,0.603 -0.688,1.198 -1.007,1.81 -1.764,3.262 -2.584,4.671 -3.628,5.94 -3.755,6.095 -3.963,6.268 -3.813,6.492 -3.68,6.69 -3.481,6.585 -3.361,6.454 -1.678,4.613 -0.263,2.619 0.319,0.155 0.213,0.104 0.106,0.052 0,0"
             style="fill:#27201d;fill-opacity:1;fill-rule:evenodd;stroke:none"
             id="path184" />
        </g>
        <g
           id="g186"
           transform="translate(202.6621,339.2529)">
          <path
             d="M 0,0 C 0.734,0.819 1.604,1.499 2.491,2.159 2.646,2.274 2.835,2.273 2.957,2.091 3.143,1.813 2.972,1.606 2.765,1.458 1.937,0.863 1.097,0.285 0.26,-0.299 0.173,-0.199 0.086,-0.1 0,0"
             style="fill:#2c2724;fill-opacity:1;fill-rule:evenodd;stroke:none"
             id="path188" />
        </g>
        <g
           id="g190"
           transform="translate(191.7563,339.8672)">
          <path
             d="M 0,0 C -0.839,0.26 -1.388,0.898 -2,1.446 -2.142,1.574 -2.145,1.763 -1.982,1.912 -1.77,2.106 -1.564,2 -1.424,1.841 -0.918,1.263 -0.276,0.795 0,0"
             style="fill:#33322f;fill-opacity:1;fill-rule:evenodd;stroke:none"
             id="path192" />
        </g>
        <g
           id="g194"
           transform="translate(276.8076,320.3618)">
          <path
             d="m 0,0 c -3.532,-0.037 -6.571,1.366 -9.427,3.265 -0.519,0.345 -0.694,0.887 -0.443,1.508 1.128,2.797 2.476,5.443 4.88,7.408 1.261,1.032 2.643,0.618 3.985,0.371 C 1.236,12.139 3.183,10.986 5.157,9.922 6.114,9.405 6.153,8.513 6.008,7.597 5.556,4.763 3.718,2.674 2.099,0.48 1.583,-0.22 0.732,0.021 0,0"
             style="fill:#51a4ae;fill-opacity:1;fill-rule:evenodd;stroke:none"
             id="path196" />
        </g>
        <g
           id="g198"
           transform="translate(161.6904,326.5869)">
          <path
             d="M 0,0 C 0.268,0.006 0.522,0.053 0.587,-0.222 0.664,-0.55 0.397,-0.636 0.155,-0.715 -0.656,-0.979 -1.472,-1.232 -2.28,-1.508 -4.011,-2.1 -5.564,-3.044 -7.126,-3.972 c -0.618,-0.366 -0.725,-0.757 -0.32,-1.384 1.277,-1.977 2.555,-3.948 4.041,-5.778 0.199,-0.245 0.671,-0.553 0.291,-0.887 -0.464,-0.409 -0.667,0.183 -0.879,0.439 -1.572,1.897 -2.924,3.949 -4.217,6.044 -0.38,0.616 -0.514,1.258 0.104,1.727 C -5.665,-1.957 -2.912,-0.741 0,0"
             style="fill:#231a17;fill-opacity:1;fill-rule:evenodd;stroke:none"
             id="path200" />
        </g>
        <g
           id="g202"
           transform="translate(237.3789,366.0962)">
          <path
             d="m 0,0 c 0.701,-2.062 1.389,-3.967 2.756,-5.589 3.648,-4.33 7.574,-3.026 10.377,0.506 1.57,1.98 2.158,4.371 2.156,7.038 1.666,-1.16 2.713,-2.677 3.338,-4.407 1.416,-3.922 1.922,-7.914 0.477,-11.978 -0.239,-0.675 -0.56,-0.897 -1.284,-0.95 -4.196,-0.309 -8.395,-0.166 -12.593,-0.196 -1.924,-0.013 -3.829,0.225 -5.737,0.423 -0.344,0.035 -0.572,0.086 -0.67,0.508 -1.08,4.708 -1.194,9.354 0.801,13.882 C -0.281,-0.541 -0.163,-0.327 0,0"
             style="fill:#af2125;fill-opacity:1;fill-rule:evenodd;stroke:none"
             id="path204" />
        </g>
        <g
           id="g206"
           transform="translate(247.9062,383.0142)">
          <path
             d="m 0,0 c 0.018,-4.668 -1.732,-8.028 -5.299,-10.397 -2.741,-1.819 -4.882,-1.062 -5.742,2.141 -0.954,3.556 -0.419,6.928 1.859,9.902 1.319,1.72 2.868,3.135 5.11,3.619 1.208,0.261 2.066,-0.092 2.808,-1.013 C -0.16,2.883 -0.037,1.262 0,0"
             style="fill:#fefefe;fill-opacity:1;fill-rule:evenodd;stroke:none"
             id="path208" />
        </g>
        <g
           id="g210"
           transform="translate(255.0586,385.4229)">
          <path
             d="m 0,0 c 3.021,-3.134 4.34,-7.041 5.012,-11.214 1.198,-7.448 0.979,-14.826 -1.229,-22.088 -0.345,-1.138 -0.339,-1.14 -1.738,-1.114 0.507,1.891 0.962,3.772 1.256,5.685 1.203,7.827 1.286,15.601 -1.18,23.24 C 1.529,-3.659 0.736,-1.913 -0.27,-0.268 -0.312,-0.046 -0.223,0.044 0,0"
             style="fill:#fdfdfd;fill-opacity:1;fill-rule:evenodd;stroke:none"
             id="path212" />
        </g>
        <g
           id="g214"
           transform="translate(255.0586,385.4229)">
          <path
             d="M 0,0 C -0.09,-0.089 -0.18,-0.178 -0.27,-0.268 -0.779,0.336 -1.289,0.939 -1.797,1.543 -1.07,1.16 -0.45,0.674 0,0"
             style="fill:#a8a4a3;fill-opacity:1;fill-rule:evenodd;stroke:none"
             id="path216" />
        </g>
        <g
           id="g218"
           transform="translate(178.7856,365.9727)">
          <path
             d="m 0,0 c 1.388,-1.089 1.651,-2.541 1.769,-3.977 0.219,-2.676 -0.355,-5.303 -0.704,-7.94 -0.069,-0.526 -0.332,-0.768 -0.923,-0.761 -3.275,0.036 -6.551,0.035 -9.827,0.034 -0.733,0 -1.168,0.178 -1.222,1.056 -0.155,2.511 -0.474,5.023 0.102,7.517 0.357,1.548 1.046,2.912 2.481,3.931 0.132,-1.654 0.296,-3.187 1.115,-4.577 1.516,-2.575 4.058,-2.615 5.635,-0.057 C -0.698,-3.355 -0.493,-1.712 0,0"
             style="fill:#af2125;fill-opacity:1;fill-rule:evenodd;stroke:none"
             id="path220" />
        </g>
        <g
           id="g222"
           transform="translate(175.4482,379.354)">
          <path
             d="m 0,0 c -0.115,-2.242 -0.173,-4.92 -1.935,-7.175 -0.634,-0.813 -1.363,-1.333 -2.454,-1.142 -0.791,0.139 -1.358,0.594 -1.789,1.234 -1.012,1.5 -1.475,3.142 -1.185,4.952 0.397,2.475 0.478,5.04 1.907,7.238 0.288,0.441 0.638,0.863 1.036,1.207 1.22,1.055 2.723,0.727 3.442,-0.713 C -0.229,4.103 0.027,2.747 0,0"
             style="fill:#fefefe;fill-opacity:1;fill-rule:evenodd;stroke:none"
             id="path224" />
        </g>
        <g
           id="g226"
           transform="translate(167.1299,375.5283)">
          <path
             d="m 0,0 c -0.293,-5.807 -0.358,-11.616 -0.227,-17.428 0.03,-1.318 0.15,-2.633 0.208,-3.95 0.011,-0.24 0.17,-0.659 -0.329,-0.591 -0.35,0.048 -0.818,-0.066 -0.971,0.438 -0.03,0.099 -0.012,0.213 -0.012,0.32 -0.003,7.517 -0.258,15.048 1.122,22.496 C 0.361,0.938 -0.008,0.438 0,0"
             style="fill:#fbfbfa;fill-opacity:1;fill-rule:evenodd;stroke:none"
             id="path228" />
        </g>
        <g
           id="g230"
           transform="translate(167.1299,375.5283)">
          <path
             d="M 0,0 C -0.219,0.404 0.202,0.913 -0.209,1.285 -0.216,2.033 0.073,2.715 0.319,3.416 0.302,2.269 0.271,1.125 0,0"
             style="fill:#a8a4a3;fill-opacity:1;fill-rule:evenodd;stroke:none"
             id="path232" />
        </g>
      </g>
    </g>
  </g>
</svg>
